<?xml version="1.0" encoding="UTF-8" standalone="no"?>
<!-- Created with Inkscape (http://www.inkscape.org/) -->

<svg
   xmlns:dc="http://purl.org/dc/elements/1.1/"
   xmlns:cc="http://creativecommons.org/ns#"
   xmlns:rdf="http://www.w3.org/1999/02/22-rdf-syntax-ns#"
   xmlns:svg="http://www.w3.org/2000/svg"
   xmlns="http://www.w3.org/2000/svg"
   xmlns:sodipodi="http://sodipodi.sourceforge.net/DTD/sodipodi-0.dtd"
   xmlns:inkscape="http://www.inkscape.org/namespaces/inkscape"
   width="210mm"
   height="297mm"
   viewBox="0 0 744.09448819 1052.3622047"
   id="svg2"
   version="1.1"
   inkscape:version="0.91 r13725"
   sodipodi:docname="gravure-amy-rose-smatch-u-up-geek-4.svg">
  <title
     id="title3349">Amy Rose Smatch You Up</title>
  <defs
     id="defs4" />
  <sodipodi:namedview
     id="base"
     pagecolor="#ffffff"
     bordercolor="#666666"
     borderopacity="1.0"
     inkscape:pageopacity="0.0"
     inkscape:pageshadow="2"
     inkscape:zoom="0.35"
     inkscape:cx="823.71424"
     inkscape:cy="174.28571"
     inkscape:document-units="px"
     inkscape:current-layer="layer1"
     showgrid="false"
     inkscape:window-width="1536"
     inkscape:window-height="877"
     inkscape:window-x="-8"
     inkscape:window-y="-8"
     inkscape:window-maximized="1" />
  <metadata
     id="metadata7">
    <rdf:RDF>
      <cc:Work
         rdf:about="">
        <dc:format>image/svg+xml</dc:format>
        <dc:type
           rdf:resource="http://purl.org/dc/dcmitype/StillImage" />
        <dc:title>Amy Rose Smatch You Up</dc:title>
      </cc:Work>
    </rdf:RDF>
  </metadata>
  <g
     inkscape:label="Calque 1"
     inkscape:groupmode="layer"
     id="layer1">
    <path
       style="fill:#000000"
       d="m 122.11092,1040.1066 c -0.62881,-0.054 -10.62451,-0.3556 -22.21268,-0.6703 -23.155217,-0.6285 -22.218868,-0.5399 -28.419156,-2.6898 -1.167797,-0.4048 -3.005246,-0.8817 -4.083218,-1.0596 -3.384404,-0.5585 -9.993112,-2.2468 -13.427464,-3.4302 -8.489982,-2.9256 -15.656416,-6.9673 -20.412062,-11.5122 -2.028161,-1.9382 -2.132493,-2.1147 -3.380368,-5.7168 -1.123291,-3.2426 -1.305427,-4.1663 -1.427256,-7.2384 -0.156978,-3.9582 0.04349,-5.3697 0.865794,-6.0959 0.502861,-0.4441 0.532602,-0.8289 0.272752,-3.52993 -0.271514,-2.8222 -0.199286,-3.56135 1.045946,-10.70333 l 1.337587,-7.67182 2.910102,-7.46048 c 3.719125,-9.53451 7.803402,-17.33966 13.715672,-26.21093 3.767466,-5.653 5.335754,-7.6592 10.598633,-13.55801 5.088583,-5.70346 7.116108,-7.71301 11.507684,-11.40578 5.004568,-4.20823 5.576479,-4.59663 9.344904,-6.34631 2.530631,-1.17499 5.647546,-2.32124 8.434035,-3.10169 6.17832,-1.73041 23.452455,-5.11541 28.265915,-5.53891 3.88444,-0.34178 8.95586,-1.03583 9.21025,-1.2605 0.0727,-0.0641 -0.17947,-0.93345 -0.5603,-1.93175 -2.03777,-5.34186 2.57085,-11.19162 11.10752,-14.09884 4.39234,-1.49584 12.3053,-2.88505 16.51041,-2.89858 1.47118,-0.004 1.8011,-0.13299 3.16753,-1.23127 0.83893,-0.67429 6.03525,-5.70334 11.54739,-11.17564 6.8908,-6.84103 12.17195,-12.42897 16.90309,-17.88504 3.78456,-4.36447 10.70417,-12.21914 15.37691,-17.45485 7.68145,-8.60688 11.7553,-13.29821 15.34654,-17.67261 l 1.24655,-1.51837 -1.79719,-1.71422 c -2.96201,-2.8253 -4.45716,-6.412 -4.46663,-10.71482 -0.008,-3.69606 0.3636,-4.66107 4.33253,-11.24778 3.38055,-5.61025 4.47304,-7.08643 12.00674,-16.22381 5.90799,-7.16558 8.80812,-10.43609 10.09978,-11.38965 0.99658,-0.73569 2.62734,-1.98888 3.62391,-2.78482 3.28092,-2.62047 6.91121,-3.73838 11.58606,-3.56784 l 2.77744,0.10133 2.22856,-4.18279 c 1.22572,-2.30054 3.48255,-6.25976 5.0152,-8.79828 1.53266,-2.53853 5.18064,-8.70454 8.10663,-13.70225 2.92599,-4.99771 6.23646,-10.57958 7.35659,-12.40414 1.12013,-1.82456 4.12799,-7.1468 6.68412,-11.8272 2.55615,-4.6804 5.66025,-10.3066 6.89802,-12.50268 1.23777,-2.19608 2.24855,-4.07833 2.24618,-4.18279 -0.002,-0.10448 -2.02356,-1.26162 -4.49153,-2.5715 -3.02395,-1.60492 -5.55245,-3.2309 -7.7538,-4.98614 -1.79662,-1.43254 -4.80488,-3.80083 -6.68503,-5.26287 -4.87027,-3.78719 -13.74204,-10.84379 -14.73751,-11.72218 -0.46372,-0.40919 -2.98861,-3.08058 -5.61084,-5.93642 -2.62224,-2.85583 -6.7262,-7.29461 -9.1199,-9.86394 -4.22007,-4.52964 -4.47608,-4.88435 -8.43245,-11.68297 l -4.08025,-7.01145 -3.66442,-10.52909 c -2.01542,-5.79101 -3.90571,-11.47024 -4.20063,-12.6205 -0.29491,-1.15026 -0.65235,-2.0914 -0.79432,-2.0914 -0.14197,0 -1.56798,-0.75953 -3.16891,-1.68788 -12.68875,-7.35782 -20.33302,-19.027 -22.32661,-34.08219 -0.52659,-3.97673 -0.10326,-14.13301 0.66071,-15.85275 0.314,-0.70683 0.70103,-1.32083 0.86006,-1.36448 0.15903,-0.0436 1.06903,1.19272 2.02221,2.74749 5.27591,8.6057 12.60506,17.20062 16.98586,19.91934 l 1.07942,0.66991 -0.20701,-12.36286 -0.20703,-12.36286 1.27605,-6.06934 1.27605,-6.06935 2.74042,-4.7091 c 1.50724,-2.59001 2.91993,-4.76994 3.13933,-4.84431 0.6907,-0.23407 16.68802,3.94717 22.48903,5.87798 l 5.55318,1.84833 16.16952,2.01143 c 14.37022,1.78764 17.92862,2.12489 31.97765,3.03074 l 15.80812,1.01931 0.91836,-0.77703 c 0.76264,-0.64525 1.9277,-2.82093 1.9277,-3.59994 0,-0.11389 -1.7272,-0.81616 -3.83822,-1.56058 -9.3802,-3.30787 -15.29207,-5.5735 -22.84612,-8.75542 -7.77798,-3.27625 -8.5368,-3.67258 -18.82785,-9.83359 -5.89777,-3.53087 -10.76422,-6.37568 -10.81432,-6.32183 -0.0501,0.0538 1.13713,5.86376 2.63832,12.91087 1.50119,7.04711 2.66064,12.87365 2.57656,12.9479 -0.0841,0.0743 -2.5462,-1.07748 -5.47137,-2.5594 -36.71079,-18.59817 -49.75599,-25.49881 -54.97037,-29.07817 -11.03013,-7.57151 -13.04371,-9.15497 -20.64369,-16.23384 -5.39325,-5.02345 -9.83127,-9.54758 -15.39666,-15.69533 -6.95704,-7.68506 -8.67735,-9.81444 -15.60095,-19.31082 l -7.78169,-10.67333 -4.12155,-8.79828 c -2.47806,-5.28993 -5.05101,-11.38643 -6.45247,-15.28883 -2.1588,-6.01124 -2.46378,-7.1935 -4.12987,-16.00999 -2.33501,-12.35625 -3.12628,-21.81686 -3.13002,-37.42332 l -0.002,-10.46243 1.64646,-12.98108 c 1.59005,-12.53631 1.71487,-13.23086 3.64311,-20.27153 l 1.99664,-7.29046 -1.92565,-1.5395 c -1.05911,-0.84671 -7.1717,-5.87391 -13.58353,-11.17152 l -11.65777,-9.63201 -8.68075,-9.31132 c -9.667161,-10.36943 -10.046164,-10.81038 -20.634036,-24.00678 -9.09586,-11.33678 -9.733385,-12.1713 -14.87535,-19.47161 -4.724679,-6.70786 -16.975135,-27.75535 -22.153398,-38.06174 -2.923673,-5.81904 -3.387616,-6.98136 -4.409987,-11.04829 -0.628415,-2.49979 -1.217744,-4.82633 -1.309631,-5.17008 -0.133795,-0.50056 0.12959,-0.78772 1.322957,-1.44234 1.44792,-0.79425 1.622974,-1.06031 6.196909,-9.41824 l 4.706893,-8.6009 6.390252,-7.77568 c 3.514642,-4.27661 7.807138,-9.62278 9.538861,-11.88035 4.12363,-5.37577 3.990716,-5.23338 6.370257,-6.82415 4.429803,-2.96141 4.774303,-3.02729 21.163946,-4.04792 7.635607,-0.47549 22.335177,-1.3892 32.665697,-2.03047 10.33054,-0.64127 21.62078,-1.34873 25.08943,-1.57212 3.7125,-0.23912 6.66854,-0.30537 7.18645,-0.1611 0.48391,0.1348 2.55252,0.72038 4.59695,1.3013 2.04442,0.58092 3.97525,0.99661 4.29074,0.92374 0.31549,-0.0728 6.72755,-3.3514 14.24901,-7.28567 22.59672,-11.81968 18.63203,-9.93914 59.57071,-28.25586 19.30329,-8.636641 40.02601,-17.350782 72.51785,-30.494565 3.5034,-1.417218 9.53023,-3.948408 13.39294,-5.624861 3.86272,-1.676465 7.92624,-3.407834 9.03008,-3.847493 1.99492,-0.79458 2.00803,-0.807725 2.1938,-2.195392 0.10281,-0.767814 0.34968,-5.030731 0.54868,-9.473137 0.35363,-7.894565 0.38523,-8.139059 1.39747,-10.817566 2.07653,-5.494765 6.58283,-12.805756 9.98525,-16.200097 2.24943,-2.244074 3.87425,-2.971175 11.76374,-5.264277 22.10008,-6.423436 38.22472,-10.6127772 46.25526,-12.0175597 4.26294,-0.7457146 7.26038,-0.6496199 13.98713,0.4484057 15.62955,2.551269 31.38141,8.284267 46.05335,16.761455 6.04197,3.490946 16.44761,10.592655 16.85688,11.504589 0.073,0.16292 2.94559,2.718496 6.38334,5.679049 16.39781,14.121777 29.52433,28.753001 35.28497,39.32977 1.12337,2.062546 4.87149,8.942511 8.3292,15.288816 3.4577,6.346303 6.99056,13.096463 7.85078,15.000353 1.00068,2.21475 2.75502,7.46201 4.87045,14.56766 4.24417,14.25575 5.69946,21.28936 6.46615,31.25135 0.52425,6.81205 0.52213,7.59911 -0.0432,16.00999 l -0.59458,8.84575 -2.08607,7.33494 c -1.14735,4.03422 -2.12127,7.35661 -2.16429,7.3831 -1.70444,1.04924 -36.17585,26.98403 -36.15536,27.20174 0.01,0.10818 1.73735,1.39067 3.83822,2.85009 6.34406,4.4071 11.4079,8.34305 16.42114,12.76363 4.04177,3.56391 5.6144,5.23991 10.40159,11.08521 5.89313,7.1957 8.92182,11.53598 12.10343,17.34486 3.47619,6.34673 4.62883,10.2642 3.47687,11.81679 -0.71156,0.95901 -1.57282,0.93095 -4.24341,-0.13841 -4.87643,-1.95258 -21.81599,-5.95024 -50.01943,-11.80436 -7.72544,-1.60355 -14.41374,-2.99384 -14.8629,-3.08953 -0.61202,-0.1304 0.01,0.57593 2.48475,2.81886 3.01913,2.73695 3.9309,3.86851 10.66291,13.23349 4.04885,5.63235 9.79638,14.08516 12.77235,18.78405 l 5.41085,8.54345 4.78249,16.12059 c 2.63036,8.86634 4.82609,16.16098 4.8794,16.21031 0.0533,0.0493 6.04587,-2.9688 13.31678,-6.70689 7.27092,-3.73812 13.37539,-6.79658 13.5655,-6.79658 0.19009,0 0.51246,0.44638 0.71637,0.99199 0.29911,0.80035 0.27478,1.15581 -0.12597,1.84017 -1.71187,2.9234 -9.31162,8.53475 -22.32511,16.48398 l -5.30818,3.2425 0,7.20556 0,7.2056 0.8983,-0.15114 c 0.49407,-0.0832 3.83823,-0.43125 7.43146,-0.77364 4.98407,-0.47487 7.2007,-0.82066 9.3485,-1.45834 1.54845,-0.45974 2.99594,-0.83588 3.21662,-0.83588 0.78376,0 12.98779,-4.41703 17.63237,-6.38172 11.42796,-4.83412 21.08234,-10.29316 28.99528,-16.39537 l 2.68114,-2.06756 0.98418,0.95569 c 0.54131,0.52565 0.98732,1.02064 0.99111,1.09997 0.004,0.0794 -0.92437,1.24762 -2.06264,2.5962 -14.73213,17.45439 -38.98956,28.60791 -67.1764,30.88768 -2.24578,0.18162 -4.09783,0.34843 -4.11569,0.37071 -0.018,0.0222 0.0919,0.44637 0.24391,0.9425 l 0.27641,0.90204 2.14405,-0.68724 c 4.58886,-1.47093 10.39686,-1.91154 14.68093,-1.11372 3.5863,0.66789 6.18322,1.94707 9.02043,4.44328 2.088,1.83705 2.75287,2.67459 4.14172,5.21726 1.47346,2.69762 3.33402,8.02099 3.33402,9.53917 0,0.42035 0.39229,0.5448 2.20495,0.69955 5.50057,0.46969 9.80777,1.52245 13.96458,3.41325 1.93979,0.88237 3.3338,1.8226 5.40922,3.6484 4.64793,4.08896 6.42076,7.92913 6.74582,14.61234 l 0.1842,3.78705 2.05929,1.19561 c 2.63285,1.52862 6.87354,5.04937 8.83633,7.33621 1.76077,2.05145 3.76603,5.68364 4.40631,7.9812 0.51497,1.84804 0.54309,6.88214 0.047,8.40998 -0.31663,0.97502 -0.25636,1.15883 0.80361,2.45197 2.7936,3.40817 4.64591,8.07391 4.65826,11.73363 l 0.006,1.6816 0.90751,-0.17603 c 1.05513,-0.20464 2.52072,0.67519 7.41466,4.45135 5.97194,4.60797 10.32752,9.86245 11.93781,14.40159 l 0.55303,1.55888 3.55809,0.0523 c 3.00697,0.0442 3.99037,0.18523 6.34909,0.91038 8.7089,2.67742 14.38304,9.50192 17.61936,21.19141 0.50984,1.84158 1.02845,4.06547 1.15244,4.94198 0.20622,1.45746 0.4637,1.84929 3.01257,4.58457 1.5329,1.64502 3.79167,3.92787 5.01945,5.073 4.23821,3.953 7.44193,11.63699 7.47427,17.92687 0.007,1.18812 0.13748,1.36561 2.34893,3.17315 3.81022,3.11437 5.52654,6.01283 6.16591,10.41287 0.38911,2.67763 -0.0718,6.26672 -1.17875,9.1787 l -0.79812,2.09964 3.03938,3.23702 c 1.67164,1.78037 5.76749,6.22269 9.10184,9.87182 3.33439,3.64912 9.01061,9.73993 12.61387,13.53517 l 6.55133,6.90036 -0.83052,2.04215 c -1.98131,4.87166 -4.52868,8.41087 -8.32234,11.56285 -5.49026,4.56152 -11.47031,6.39214 -20.10499,6.15456 -3.68966,-0.10154 -4.38975,-0.19737 -5.0027,-0.68494 -0.78577,-0.62508 -22.46465,-23.53311 -24.00831,-25.36952 -0.53081,-0.63149 -1.21373,-1.41035 -1.51758,-1.73081 -0.30389,-0.32043 -4.57623,-5.06109 -9.49415,-10.53478 l -8.94165,-9.95216 -5.6954,-0.17573 c -11.07302,-0.34167 -22.55083,-2.87329 -33.92095,-7.48189 -1.93923,-0.78602 -3.60178,-1.42913 -3.69462,-1.42913 -0.0928,0 -0.58027,0.55169 -1.08326,1.22599 -2.56984,3.44517 -5.8306,5.97015 -9.78867,7.57986 -3.50859,1.4269 -5.3432,1.72766 -10.2897,1.68686 -5.17898,-0.0427 -8.66601,-0.72705 -14.13451,-2.77382 -5.36296,-2.0073 -8.38291,-3.76557 -14.08879,-8.20277 -4.02431,-3.12956 -5.68085,-4.63407 -7.05566,-6.40812 l -1.79662,-2.31839 -5.7165,-0.011 c -21.63129,-0.0416 -42.48818,-4.19607 -61.67115,-12.28414 -2.42687,-1.02323 -4.42781,-1.86042 -4.44652,-1.86042 -0.0186,0 0.0642,1.13585 0.18436,2.52409 0.54297,6.27641 0.59076,6.02709 -2.95288,15.4035 l -3.22816,8.54151 -4.51329,6.16495 c -3.96316,5.41352 -5.48741,7.167 -12.50534,14.38629 -4.39563,4.52174 -8.17191,8.41606 -8.39175,8.65406 -0.21982,0.23798 -0.49555,0.83174 -0.61268,1.31945 -0.20919,0.87083 -0.097,0.96437 6.25178,5.21256 3.55564,2.37917 11.32935,7.45217 17.27493,11.27329 14.47539,9.30313 20.60223,12.42168 41.94499,21.34989 20.3037,8.49355 27.27633,10.91359 45.5115,15.79614 l 14.01271,3.75197 0.65985,1.00965 0.65984,1.00963 -2.49847,4.12262 c -1.37417,2.26744 -4.18405,6.37561 -6.2442,9.1293 -3.73536,4.99275 -3.76254,5.02021 -9.77718,9.8681 l -6.0314,4.86142 13.18414,11.68296 13.18418,11.68297 3.80562,5.27444 c 2.28133,3.16181 4.3317,6.39698 5.11908,8.07711 0.72236,1.54147 1.74137,3.39715 2.26441,4.12371 l 0.951,1.32104 4.00325,0.81398 c 4.22155,0.85834 13.22324,3.46799 13.83915,4.01208 0.19959,0.17628 0.82433,1.88776 1.3883,3.80325 0.96213,3.26771 1.02543,3.79771 1.02543,8.58346 0,4.64478 -0.13275,5.84186 -1.48511,13.39263 -0.8168,4.5606 -1.5706,8.61649 -1.67509,9.01314 -0.10449,0.39665 -1.93,4.83715 -4.05669,9.86781 -3.69378,8.73748 -3.96934,9.27325 -6.15994,11.97663 -1.26126,1.55649 -3.30682,3.61768 -4.54572,4.58044 l -2.25253,1.75046 -3.71374,0.64807 c -2.04252,0.35646 -4.40944,0.77746 -5.2598,0.93556 l -1.5461,0.28746 -2.98692,8.12636 c -3.29606,8.96738 -4.52959,14.08204 -5.8318,24.18056 -0.82488,6.39673 -0.82448,6.98709 0.007,10.79331 2.07146,9.47922 7.53481,18.38925 15.40613,25.12556 1.76218,1.50809 2.72075,2.11205 3.54021,2.23059 7.40633,1.07134 9.75871,1.46131 12.48166,2.0693 4.38384,0.97879 6.17833,1.64697 9.22147,3.43357 4.6027,2.70227 7.90304,6.0069 9.33918,9.35129 0.63735,1.48425 0.6608,1.77082 0.28557,3.49199 -0.22484,1.03128 -0.46758,2.01582 -0.53944,2.18786 -0.0825,0.19763 1.0471,0.44043 3.06849,0.65956 1.7595,0.1907 5.845,0.87716 9.07891,1.5255 5.10986,1.02438 6.75918,1.50996 12.59511,3.70809 10.72604,4.04 11.23667,4.33008 18.63908,10.58834 9.41527,7.95997 11.94676,10.79729 17.05914,19.12 4.02164,6.54699 4.24135,6.9962 6.41986,13.12531 3.18751,8.968 3.55713,11.1044 3.66809,21.20243 0.0803,7.30408 0.0235,8.41278 -0.50923,9.93708 -1.34017,3.83515 -3.80702,7.33271 -7.69055,10.90375 l -2.74385,2.52309 0.17735,1.72725 0.17737,1.7273 -5.76674,4.43898 c -3.17167,2.44143 -6.06034,4.72846 -6.41923,5.08226 -0.98523,0.97128 -2.0224,1.35277 -6.25533,2.30089 -7.57798,1.6974 -32.20734,5.73088 -41.60072,6.81287 -4.35891,0.50208 -11.69281,0.47179 -42.9554,-0.17732 -23.73114,-0.49276 -26.03538,-0.57625 -32.17573,-1.16571 -13.37637,-1.28417 -19.13841,-2.16132 -24.61223,-3.74677 l -5.09281,-1.47508 -6.6252,-4.44076 -6.62516,-4.44075 -6.64486,-6.85432 c -3.65467,-3.76985 -9.30303,-9.96976 -12.55189,-13.77754 -3.2489,-3.80778 -6.62388,-7.6372 -7.50002,-8.50982 -3.55017,-3.53601 -8.68078,-11.15172 -12.83752,-19.05564 l -2.3831,-4.53132 0.17869,-3.56746 c 0.13805,-2.75556 0.32695,-3.83004 0.83007,-4.72133 0.68644,-1.21592 3.93282,-4.56193 8.03534,-8.28187 2.15316,-1.95238 2.37548,-2.25031 1.82016,-2.43923 -0.34792,-0.11835 -4.29538,-1.27238 -8.77214,-2.56448 l -8.13952,-2.34929 -1.6521,-1.84625 -1.65212,-1.84626 -0.88218,-5.4809 c -0.8133,-5.05292 -0.90016,-6.51702 -1.11233,-18.75045 l -0.23016,-13.26954 1.37451,-7.93288 c 1.51316,-8.73331 3.21528,-16.11257 4.25265,-18.43672 0.97905,-2.19346 2.60844,-4.2923 4.64182,-5.97912 2.51527,-2.08658 4.79154,-3.02883 8.90821,-3.68749 1.93802,-0.31007 1.94517,-0.31498 3.14632,-2.1497 1.4773,-2.25657 6.61928,-7.75962 12.44357,-13.3174 5.25151,-5.01121 16.51321,-18.19713 26.96773,-31.57557 3.96742,-5.07704 7.81971,-9.97278 8.5606,-10.87944 l 1.34711,-1.64848 -1.34743,-0.60703 c -4.42751,-1.9947 -6.80815,-6.72685 -6.38053,-12.68296 0.25571,-3.56115 0.98883,-6.05484 3.4201,-11.63305 3.6974,-8.48327 5.75054,-11.67517 9.92097,-15.4237 3.51907,-3.16306 7.34201,-4.96324 10.54015,-4.96324 l 1.48936,0 -0.20547,-1.51446 c -0.11303,-0.83296 -0.44883,-1.80183 -0.74625,-2.15304 -0.29742,-0.35122 -6.02774,-4.87455 -12.73407,-10.05183 l -12.19333,-9.41327 -9.85602,4.0438 c -5.91492,2.42683 -11.48876,4.50283 -13.93924,5.19172 -2.24577,0.63134 -7.39062,2.21061 -11.433,3.50953 -6.28172,2.01845 -8.87442,2.66952 -17.84139,4.48018 -8.77286,1.77148 -12.62574,2.38193 -23.51931,3.72643 l -13.0277,1.60792 -9.63638,-0.008 c -8.85453,-0.007 -10.85557,-0.11034 -24.6626,-1.27606 l -15.02623,-1.26863 -9.2541,-2.18754 c -5.08974,-1.20312 -9.49961,-2.18573 -9.79971,-2.18357 -0.6085,0.004 -1.21553,1.20889 -8.79364,17.44839 -5.32634,11.414 -6.76331,14.60258 -7.60516,16.8754 -0.62359,1.68346 -2.50455,5.55953 -4.55322,9.38255 -0.68228,1.27327 -1.4656,2.8959 -1.74065,3.60585 -0.27504,0.70991 -1.26717,2.7836 -2.20473,4.60817 -1.38219,2.68976 -4.15955,10.56523 -3.8214,10.83577 0.0444,0.0356 1.47715,0.88157 3.18392,1.8802 1.95161,1.14187 4.50882,3.05347 6.8908,5.15107 3.24413,2.85684 3.98384,3.68717 5.15592,5.78737 0.80478,1.44201 1.51285,3.22512 1.7191,4.32904 l 0.3507,1.87703 -3.70044,7.35395 c -4.93569,9.80874 -12.93237,24.01246 -14.88581,26.44009 -2.16773,2.694 -6.11318,6.11039 -7.83205,6.78183 -2.41057,0.94167 -5.88979,1.39019 -12.28459,1.58372 l -6.13027,0.18552 -0.47946,1.47021 c -1.71168,5.24848 -6.32765,27.61328 -7.70923,37.35183 l -1.33467,9.4079 0.21399,7.64441 c 0.28715,10.25875 1.64692,18.09669 6.18058,35.62585 3.26188,12.61198 5.6365,26.32821 6.09277,35.19313 0.17148,3.33182 0.46756,6.73076 0.65796,7.5532 0.36799,1.58958 0.16345,4.47969 -0.43519,6.14905 -0.19913,0.5553 -0.32654,1.27896 -0.28312,1.60813 0.1415,1.07296 -2.58171,4.79726 -6.61585,9.04798 -5.90076,6.21753 -6.67777,6.89777 -14.80357,12.96014 -7.53464,5.62133 -8.99778,6.53103 -23.95505,14.89433 -7.05297,3.9435 -7.52466,4.1536 -12.03513,5.3595 -2.52772,0.6758 -8.27777,2.7181 -14.4481,5.1316 -9.10397,3.561 -10.79695,4.1249 -15.14923,5.0461 -9.44789,1.9996 -32.70795,6.2658 -37.23763,6.83 -4.1797,0.5204 -38.98719,3.2266 -40.05015,3.1137 -0.25113,-0.027 -0.97108,-0.092 -1.5999,-0.1467 z m 25.08377,-3.1153 c 18.05122,-1.4956 19.72318,-1.7621 43.36361,-6.9122 l 14.03353,-3.0574 15.56126,-5.4922 15.56127,-5.4922 11.47942,-6.335 c 13.90321,-7.6725 23.07954,-13.79074 27.62108,-18.41612 1.49287,-1.52043 4.35456,-4.43577 6.35932,-6.47856 2.302,-2.34568 4.07127,-4.46167 4.80198,-5.743 l 1.15699,-2.02889 -0.41154,-2.85174 c -0.22634,-1.56843 -0.49718,-2.89776 -0.60185,-2.954 -0.10472,-0.0562 -2.82046,3.05124 -6.03506,6.90558 -5.48586,6.57757 -6.2116,7.31741 -11.81917,12.04875 l -5.97442,5.04086 -8.59691,4.70579 c -13.95933,7.64113 -18.66905,9.42833 -45.83579,17.39403 -8.0446,2.3588 -9.5022,2.6794 -27.60253,6.0716 -17.6548,3.3089 -19.94242,3.6712 -30.05245,4.7612 -10.51989,1.134 -11.52401,1.1918 -25.96924,1.4928 -8.26442,0.1723 -16.56967,0.2281 -18.45612,0.1238 -9.903789,-0.5467 -31.044719,-2.8355 -39.03552,-4.2261 -1.077972,-0.1875 -4.164879,-1.0451 -6.859792,-1.9057 -2.694925,-0.8607 -6.274791,-2.0041 -7.955262,-2.5411 -8.445332,-2.6983 -15.688521,-7.9956 -20.155202,-14.7404 l -1.271894,-1.9206 -0.280648,1.1274 c -0.406457,1.6327 -0.03067,5.1742 0.769235,7.2495 2.431294,6.3077 8.791828,10.9038 22.687282,16.3935 13.118169,5.1827 16.577544,6.3799 19.436093,6.7266 1.527128,0.1852 4.614035,0.5939 6.859804,0.9081 3.310136,0.463 7.330136,0.6447 21.232704,0.9595 28.63189,0.648 28.26831,0.6545 45.98982,-0.8138 z m -18.87728,-8.5213 c 3.14407,-0.1567 8.43592,-0.5404 11.75965,-0.8529 3.32374,-0.3125 7.8806,-0.7161 10.12637,-0.8966 2.24577,-0.1807 4.11583,-0.3538 4.15568,-0.3848 0.0398,-0.032 -0.46485,-0.7611 -1.12158,-1.6221 -1.0873,-1.4258 -1.39011,-2.3272 -3.38685,-10.0806 -1.20603,-4.6831 -2.50202,-9.5748 -2.87996,-10.8705 -1.05661,-3.6223 -0.95901,-11.31667 0.26285,-20.72164 0.93519,-7.19838 0.94057,-7.22089 2.90825,-12.16716 1.51056,-3.7972 2.90384,-6.52793 5.96091,-11.68297 2.19429,-3.70013 4.61113,-7.63619 5.37078,-8.74679 0.75965,-1.11061 2.81963,-4.42078 4.57775,-7.35595 5.71291,-9.53768 13.91683,-18.45813 27.26499,-29.64627 5.69214,-4.77103 5.73105,-4.29463 -0.42895,-5.25205 -11.02648,-1.71377 -22.23379,-2.29174 -44.68714,-2.3046 l -16.5395,-0.01 -7.46979,2.42233 c -9.68979,3.14226 -10.11297,3.28591 -12.04298,4.08789 -2.19812,0.91338 -3.53825,1.63507 -3.8583,2.07777 -0.1458,0.20167 -0.40304,0.29137 -0.57166,0.19934 -0.16862,-0.092 -0.30657,-0.0501 -0.30657,0.0932 0,0.14327 -1.43321,1.14942 -3.18491,2.23591 -10.72057,6.64931 -19.583923,14.12693 -28.880419,24.3652 -5.205527,5.73287 -5.554867,6.20454 -11.430181,15.43305 -11.117229,17.46214 -15.289825,27.01151 -18.21371,41.68368 -1.130005,5.67037 -1.310981,7.19577 -1.432308,12.07227 l -0.138868,5.5817 1.016093,0.5457 c 1.639734,0.8807 8.59234,3.0427 14.719866,4.5774 22.181644,5.5552 47.739377,8.2506 68.450487,7.219 z m 35.76894,-3.7521 c 3.41358,-0.6572 9.05694,-1.7025 12.54082,-2.3227 8.38999,-1.4938 32.00969,-7.2917 39.39766,-9.6708 7.55615,-2.4333 7.27768,-2.3316 19.76275,-7.2159 9.27648,-3.6291 11.51488,-4.638 17.73577,-7.99443 l 7.11943,-3.84119 7.35626,-6.29409 c 7.75245,-6.63307 8.77363,-7.71119 14.0821,-14.86703 l 3.31696,-4.47126 -0.93858,-9.41647 c -1.22296,-12.26982 -1.64208,-14.91072 -3.9535,-24.91126 -1.06344,-4.60107 -2.1605,-9.53388 -2.43792,-10.96179 -0.27742,-1.42792 -1.51402,-6.87998 -2.74803,-12.11567 l -2.24361,-9.51947 -0.20625,-6.63476 c -0.20377,-6.55525 -0.19024,-6.74889 1.128,-16.15423 1.25409,-8.94765 2.98755,-18.79094 4.11487,-23.36594 0.65315,-2.65074 9.48176,-34.43988 10.13447,-36.49124 0.27766,-0.87262 0.57021,-1.7926 0.6501,-2.04438 0.10549,-0.33251 -0.23609,-0.5581 -1.24815,-0.82427 -0.76638,-0.20153 -3.88354,-1.19755 -6.92702,-2.21336 -3.04348,-1.01581 -5.63076,-1.74829 -5.74949,-1.62774 -0.11873,0.12058 -0.59375,1.07137 -1.05557,2.11288 -1.09888,2.47821 -18.12206,27.1147 -36.16445,52.33838 -3.88179,5.42684 -7.60813,11.11356 -10.60759,16.18812 l -4.62371,7.82254 1.81476,0.25458 1.81477,0.25457 0.0979,1.65869 c 0.0539,0.91228 0.0272,1.6587 -0.0593,1.6587 -0.0865,0 -1.3655,-0.39339 -2.84214,-0.87418 -1.47663,-0.48082 -5.24192,-1.46256 -8.3673,-2.18171 l -5.68252,-1.30752 -2.73709,1.16994 c -7.7473,3.31154 -9.50857,8.57539 -5.19056,15.51279 0.61286,0.98466 1.26628,1.8732 1.45204,1.97459 0.18577,0.10144 1.24791,0.41021 2.36032,0.68624 1.77421,0.44029 2.03524,0.5963 2.12591,1.27067 0.12778,0.95039 -0.11719,0.9621 -3.61684,0.17304 l -2.64235,-0.59578 -4.87831,4.27375 c -2.68306,2.35055 -8.43313,7.71373 -12.77793,11.91815 l -7.89962,7.64441 -6.06009,9.23099 c -4.87993,7.43334 -7.07877,11.16907 -11.29114,19.18315 l -5.23107,9.95215 -1.68049,6.66091 -1.68049,6.66094 0,9.96909 0,9.9691 1.92918,6.5917 c 1.57183,5.3707 4.3015,12.8153 5.13623,14.0081 0.0968,0.1383 0.4209,0.189 0.72019,0.1127 0.29928,-0.076 3.33707,-0.6765 6.75063,-1.3337 z M 43.502259,997.89698 c 1.139104,-7.86667 1.168276,-7.98703 3.495372,-14.42342 1.988461,-5.49976 3.129316,-7.98772 7.473677,-16.29846 4.804256,-9.19055 5.395793,-10.16202 9.397148,-15.43306 5.307664,-6.99184 13.891529,-16.21085 21.820206,-23.43476 5.308422,-4.83655 6.693157,-5.90138 14.249054,-10.95727 7.177784,-4.80288 8.838394,-5.78036 11.664794,-6.86621 1.81254,-0.69636 3.26473,-1.29321 3.22709,-1.32635 -0.18929,-0.16659 -16.388636,2.60167 -20.647856,3.52846 -4.386458,0.95448 -5.546615,1.3511 -11.072545,3.78531 -6.113876,2.69319 -6.215722,2.75351 -10.689762,6.33179 -5.335264,4.26708 -8.510088,7.66862 -15.836601,16.9676 -7.917692,10.04931 -12.036762,16.85918 -17.44578,28.84242 -2.815059,6.23651 -4.61737,10.68331 -5.256356,12.9689 -1.329179,4.75425 -2.685646,14.56658 -2.453608,17.74871 0.162989,2.23526 0.331654,2.71416 1.980822,5.62516 2.133976,3.7666 4.545711,6.6901 6.843568,8.2958 l 1.665138,1.1636 0.218467,-4.2927 c 0.120156,-2.3609 0.735379,-7.8624 1.367172,-12.22552 z M 615.52639,990.6664 c 8.22752,-1.01702 10.60022,-1.44903 23.61748,-4.3002 l 14.47103,-3.16957 3.60244,-2.59984 c 4.00515,-2.89043 7.7976,-6.65757 7.7976,-7.7455 0,-0.42939 -0.15412,-0.64023 -0.40833,-0.55861 -12.07686,3.87736 -12.04086,3.86862 -26.86754,6.53398 -12.23594,2.19962 -15.99992,2.75435 -25.31592,3.73096 -9.34751,0.97992 -11.6574,1.13109 -15.84287,1.0367 -2.69491,-0.0608 -14.82205,-0.31455 -26.9492,-0.56393 -25.1673,-0.51757 -26.60144,-0.62266 -44.81467,-3.28366 -10.31626,-1.50726 -11.47576,-1.73246 -12.27948,-2.38527 -0.48811,-0.39646 -3.9744,-3.10068 -7.74728,-6.00933 l -6.8598,-5.28844 -5.00095,-6.51176 c -2.75056,-3.58149 -8.10479,-10.79553 -11.89833,-16.03124 -5.6263,-7.76518 -7.5771,-10.7444 -10.58591,-16.1666 -3.48696,-6.28385 -3.97361,-7.39538 -8.90398,-20.33701 -2.86847,-7.52943 -6.27198,-16.80533 -7.56335,-20.61312 l -2.34792,-6.92324 -0.63666,-6.63477 c -0.65245,-6.79943 -0.78635,-14.35938 -0.42144,-23.79864 0.27925,-7.22394 2.10001,-17.44893 3.64216,-20.45345 0.60291,-1.1746 1.04658,-2.17948 0.98595,-2.23303 -0.21544,-0.19027 -3.85959,0.76981 -5.1801,1.36472 -1.794,0.80823 -4.14714,2.95043 -5.26437,4.79246 -0.58948,0.97194 -1.41671,3.45989 -2.34984,7.06748 -1.3864,5.35992 -2.59242,13.31639 -3.75162,24.75065 -0.49404,4.87306 -0.41294,17.54222 0.15052,23.51674 0.67321,7.138 1.61101,10.05476 3.81875,11.87699 0.55329,0.45671 16.42507,6.1457 17.1459,6.1457 0.23644,0 0.0845,2.02809 -0.19847,2.64956 -0.16729,0.3673 -2.19723,2.58283 -4.51098,4.9234 l -4.20685,4.25558 -0.48766,2.25963 c -0.47608,2.20582 -0.46614,2.34571 0.41675,5.87551 l 0.90444,3.61588 4.66585,7.1272 c 4.48224,6.84674 5.08068,7.60035 15.20643,19.14848 12.62298,14.39613 19.23984,20.95053 24.40351,24.17313 1.81147,1.1305 5.66812,3.24281 8.57027,4.69402 l 5.27668,2.63856 5.82025,1.12032 c 7.06412,1.35976 11.95787,1.68789 41.26258,2.76664 10.86951,0.40014 20.05674,0.78138 20.41606,0.84721 0.35932,0.0658 7.04763,0.0537 14.8629,-0.0268 l 14.20958,-0.14666 9.14639,-1.13065 z m -16.16952,-13.22128 c 7.11093,-6.33765 11.28535,-12.36807 13.52409,-19.53718 1.84467,-5.90719 2.30333,-8.23456 2.29522,-11.6468 -0.004,-1.82455 -0.19393,-4.09625 -0.42135,-5.04819 -2.84587,-11.91259 -12.64505,-23.51831 -29.55453,-35.00298 l -6.48015,-4.40122 -20.30572,-7.53719 c -11.16817,-4.14543 -20.52626,-7.70089 -20.79575,-7.901 -0.26949,-0.20008 -0.84304,-0.93755 -1.27452,-1.63876 l -0.78453,-1.27498 1.48099,-1.8438 c 5.46597,-6.80505 6.0711,-13.06952 1.80868,-18.72359 -1.65988,-2.20178 -2.87538,-3.17084 -12.25529,-9.77062 -4.53646,-3.1919 -8.24865,-5.90053 -8.24934,-6.01921 0,-0.11871 -0.21569,-1.38252 -0.4778,-2.8085 -0.92734,-5.0454 -0.1516,-7.36457 9.93988,-29.71576 6.59975,-14.61749 7.73779,-17.38732 10.25233,-24.95251 2.18701,-6.57973 7.39938,-25.46451 7.39938,-26.80841 0,-0.3135 -3.27497,-1.56952 -6.01304,-2.30612 -4.73885,-1.27486 -16.08601,-2.61699 -22.12573,-2.61699 -2.50929,0 -2.55851,0.0138 -2.77819,0.78685 -0.37033,1.30296 -8.13415,11.55607 -19.39085,25.60801 -12.93356,16.14522 -16.99397,20.76377 -26.62389,30.28363 -4.10595,4.05901 -8.26596,8.43602 -9.24446,9.72672 l -1.7791,2.34669 -2.21389,12.04165 -2.21389,12.04169 -0.0947,9.32888 c -0.0661,6.52014 0.0196,9.63288 0.28478,10.33854 0.20867,0.5553 1.84319,6.85112 3.63229,13.99071 l 3.25285,12.98107 5.26571,12.11568 5.26572,12.11567 6.80958,10.81757 c 5.75035,9.1348 8.16052,12.59781 15.49388,22.26188 l 8.68424,11.44429 6.00758,4.72874 c 5.67824,4.4695 6.12195,4.75546 8.09306,5.21574 2.00894,0.46914 37.80671,4.20688 46.51081,4.85634 5.58998,0.4171 31.49151,0.75331 32.33905,0.41975 0.35932,-0.14141 2.49077,-1.89475 4.73652,-3.89629 z m 10.45303,2.97452 c 7.39277,-0.66279 10.2956,-1.09893 25.8059,-3.87731 9.61189,-1.72181 18.50513,-3.28438 19.76275,-3.47238 10.44026,-1.56082 17.74781,-7.80486 20.53674,-17.54788 0.63728,-2.22633 0.68624,-2.88687 0.46219,-6.2361 -0.73766,-11.02745 -3.52081,-21.91235 -7.92801,-31.00626 -2.25804,-4.65928 -5.77431,-9.61534 -9.31227,-13.12531 -1.11945,-1.1106 -2.83071,-2.94909 -3.80284,-4.08557 -7.32522,-8.56359 -21.32982,-15.36498 -40.32852,-19.58565 -8.2221,-1.82658 -6.97867,-1.7995 -34.99948,-0.76309 -13.84666,0.51216 -25.22501,0.88768 -25.28521,0.83452 -0.0602,-0.0532 -0.19979,-0.49541 -0.31016,-0.98276 -0.19204,-0.84798 -0.14661,-0.89309 1.05823,-1.04965 0.69239,-0.09 7.85983,-0.5829 15.92761,-1.09537 14.54254,-0.92376 14.74732,-0.92869 23.81454,-0.57468 6.62761,0.25875 9.24445,0.27009 9.50396,0.0411 0.20775,-0.18335 0.35805,-1.42994 0.35805,-2.9701 0,-2.21939 -0.12858,-2.8848 -0.78481,-4.06212 -2.3171,-4.15695 -9.03523,-7.67358 -18.81462,-9.84861 -3.62932,-0.80719 -6.0279,-1.19956 -12.46818,-2.03958 -0.86237,-0.11247 -1.86256,-0.97857 -5.99183,-5.18865 l -4.9567,-5.05362 -3.7295,-7.46496 -3.72951,-7.46495 0.38986,-9.90113 0.38987,-9.90116 4.97877,-14.56765 c 2.73834,-8.01221 5.72479,-16.30435 6.6366,-18.42695 0.91176,-2.12264 1.65778,-4.01098 1.65778,-4.19638 0,-0.18537 -0.55124,-0.80313 -1.22496,-1.3728 -3.76963,-3.18733 -17.94099,-11.96661 -18.5061,-11.46468 -0.0764,0.068 -1.48433,4.66681 -3.12869,10.21983 -4.98855,16.84649 -6.09517,20.21941 -8.84928,26.97179 -1.45605,3.5698 -2.78603,6.63852 -2.9555,6.81942 -0.41433,0.44216 -1.92107,3.86155 -1.92107,4.35965 0,0.37692 -7.03809,16.65082 -9.1006,21.04299 -0.53646,1.14242 -1.28764,3.1778 -1.66928,4.52307 l -0.69388,2.44595 0.72112,2.40017 0.7211,2.40018 7.15399,5.65799 7.15397,5.65799 12.80138,0.18868 c 7.04073,0.10383 14.3705,0.26733 16.28833,0.36344 l 3.487,0.17476 -0.52592,0.97392 c -0.38925,0.7208 -0.74366,0.97869 -1.36372,0.99225 -0.46079,0.01 -6.68061,0.11799 -13.82178,0.2398 -7.14114,0.12182 -13.07455,0.30148 -13.18525,0.39927 -0.11073,0.0977 0.53176,0.931 1.42775,1.85159 2.15632,2.21553 3.99874,6.61946 3.99874,9.55815 0,1.87019 -0.0806,2.06315 -2.31358,5.53651 -2.68986,4.18406 -3.9793,6.36323 -3.83319,6.47801 0.057,0.0448 4.58699,1.71059 10.06666,3.70177 5.98334,2.17422 15.58539,6.03136 24.0384,9.65623 l 14.07532,6.0359 2.74751,2.5595 c 1.51112,1.40772 4.82293,4.37965 7.35962,6.60425 5.43548,4.76677 8.83542,8.34169 12.07713,12.69879 6.28446,8.44664 8.88472,15.5215 8.5348,23.22169 -0.16209,3.56695 -0.346,4.32772 -2.30117,9.51946 -0.26884,0.71396 -0.93855,2.59622 -1.48819,4.18279 -2.06254,5.95367 -5.56064,10.82172 -11.67805,16.25147 l -4.33461,3.8473 1.53552,-0.16904 c 0.84454,-0.093 5.28391,-0.50511 9.86527,-0.91583 z M 197.47681,904.93806 c -0.49299,-1.31349 -0.68322,-2.58768 -0.70072,-4.69367 -0.0225,-2.70313 0.0453,-3.01505 1.04339,-4.80551 1.20521,-2.16193 4.15462,-4.79581 6.49452,-5.79972 0.78163,-0.33534 1.42114,-0.69693 1.42114,-0.80352 0,-0.27884 -1.97385,-0.46781 -12.24965,-1.17269 -11.28259,-0.77395 -34.57647,-0.94724 -39.5255,-0.294 -12.38399,1.63452 -19.40055,4.45288 -21.98656,8.83136 -1.16501,1.97253 -1.19927,4.80889 -0.0849,7.02173 0.42361,0.84109 0.93365,1.47384 1.13344,1.40614 1.35872,-0.46042 9.35941,-0.81686 22.73454,-1.01284 l 15.51621,-0.22735 7.18645,0.8102 c 3.95256,0.44562 9.61189,1.1863 12.5763,1.646 2.96441,0.45967 5.77866,0.84951 6.25389,0.8663 l 0.86406,0.0304 -0.6767,-1.80292 z m 23.33776,-17.02469 c 0.65809,-0.98884 2.8116,-4.65914 4.7856,-8.15627 2.4469,-4.33493 6.36737,-10.39378 12.3194,-19.03891 12.25562,-17.80086 12.60494,-18.29336 18.3203,-25.82928 2.81792,-3.71556 7.40343,-10.13064 10.19001,-14.25574 2.78659,-4.12509 5.27526,-7.78492 5.5304,-8.13296 0.44159,-0.60235 0.38807,-0.66661 -1.11323,-1.33659 -3.53948,-1.57953 -11.41008,-3.25019 -21.17655,-4.49506 -5.88577,-0.75021 -11.86893,-1.32968 -12.02548,-1.16471 -0.0672,0.0709 -3.10788,4.21802 -6.75684,9.21573 -18.41453,25.22104 -31.62365,40.93173 -50.27078,59.79112 -5.76834,5.83401 -10.48788,10.63904 -10.48788,10.67783 0,0.0388 3.86934,0.0944 8.59855,0.12344 12.24868,0.0753 25.98352,1.3241 34.19271,3.10871 3.14452,0.68361 5.9378,1.25362 6.20729,1.26675 0.27044,0.0133 1.02612,-0.78176 1.6865,-1.77406 z m -55.822,-2.69908 c 1.47562,-0.17862 1.58446,-0.2739 13.75436,-12.04355 9.75698,-9.43609 13.11572,-12.89644 16.4151,-16.91172 2.28147,-2.77651 7.48071,-9.07233 11.55386,-13.99072 7.79757,-9.41568 28.91989,-36.433 28.66177,-36.66092 -0.21329,-0.18837 -5.90561,-0.98405 -6.0606,-0.84721 -0.0702,0.0621 -2.20967,3.13958 -4.75433,6.83901 -3.74378,5.44271 -4.76278,6.7279 -5.33991,6.7349 -0.94322,0.0115 -1.33807,0.39051 -0.74434,0.71454 0.394,0.21505 0.3316,0.39644 -0.36673,1.06609 -0.46283,0.44381 -4.19662,4.96088 -8.29731,10.03793 -4.10068,5.07703 -8.64377,10.46733 -10.09575,11.97844 -1.45199,1.51112 -6.82935,7.60192 -11.94969,13.53517 -11.54886,13.38227 -19.64551,21.7988 -25.25301,26.25073 -2.28037,1.81046 -4.14613,3.33349 -4.14613,3.38454 0,0.16527 5.09068,0.0982 6.62271,-0.0872 z m 132.36987,-52.14952 c 4.82447,-1.17758 8.95087,-3.57224 11.40749,-6.62005 2.24224,-2.7819 13.19866,-21.47332 16.34259,-27.88021 l 2.84147,-5.7904 -2.45516,-3.81351 -2.45515,-3.81355 -5.74917,-4.32475 c -5.72867,-4.30934 -5.77557,-4.33689 -13.1488,-7.71783 l -7.39962,-3.39302 -12.26812,-2.89597 c -12.8107,-3.02401 -15.97406,-3.58482 -22.02274,-3.90415 -8.41379,-0.44422 -17.11541,1.52395 -21.39261,4.83865 -0.60212,0.46662 -3.7277,3.76549 -6.94572,7.33076 -4.38462,4.85777 -7.12831,8.26943 -10.9479,13.61325 -2.80333,3.92199 -5.52084,7.64329 -6.03891,8.26949 -0.51806,0.62624 -0.94194,1.38333 -0.94194,1.68247 0,0.29914 -0.43951,1.42821 -0.9767,2.50904 -2.25142,4.52996 -2.48701,8.33907 -0.7202,11.64451 1.05531,1.97434 3.35147,4.42854 3.87567,4.14243 0.18622,-0.10165 2.36324,-2.66991 4.83784,-5.70731 3.25236,-3.99203 4.38334,-5.58579 4.08099,-5.75082 -0.23006,-0.12554 -1.16869,-0.31108 -2.08586,-0.41228 -4.71617,-0.52034 -1.68292,-0.89647 9.77105,-1.21159 12.66822,-0.34856 24.87127,1.17158 35.26393,4.39282 2.34387,0.72648 7.93646,2.29336 12.428,3.48196 12.68799,3.35765 17.81051,5.36805 18.32934,7.19353 0.34287,1.20643 -0.22635,1.28504 -2.64981,0.36602 -1.25762,-0.47693 -3.258,-1.23339 -4.44528,-1.68102 l -2.15868,-0.81393 -1.13582,1.48934 c -1.03136,1.35234 -1.26273,2.07247 -2.51581,7.83054 -0.75901,3.48766 -1.46493,6.64849 -1.56873,7.02408 l -0.18871,0.68286 4.53657,-0.14146 c 2.73105,-0.0852 5.31659,-0.33188 6.4965,-0.6199 z m 274.37832,-48.78761 c 5.61798,-1.29222 10.1739,-5.33938 12.00505,-10.66433 0.38189,-1.1106 1.89699,-4.87511 3.36681,-8.36558 2.01642,-4.78831 3.29163,-8.49733 5.19457,-15.10827 l 2.52212,-8.76194 -0.10449,-6.09418 c -0.1037,-6.049 -0.11106,-6.10413 -1.00049,-7.44015 -2.19431,-3.2964 -7.70096,-5.83877 -15.77721,-7.28414 -5.57142,-0.99709 -10.26401,-1.35501 -19.91235,-1.5189 -11.93684,-0.2027 -20.32286,0.19913 -25.4415,1.21918 -1.9555,0.38967 -4.32412,0.70851 -5.26358,0.70851 -8.75086,0 -15.77875,5.63116 -21.06106,16.8754 -0.74533,1.58658 -2.02246,4.83184 -2.83806,7.21171 -2.98007,8.69548 -2.16567,13.70092 2.69139,16.54199 0.86541,0.50623 1.72377,0.87616 1.90751,0.82207 0.18372,-0.0541 1.10528,-1.25709 2.04788,-2.67335 l 1.71388,-2.57504 -1.62251,-0.23836 c -1.50481,-0.22105 -1.6225,-0.29825 -1.6225,-1.06408 0,-0.76331 0.11664,-0.84117 1.54345,-1.03011 2.36016,-0.31256 11.02007,0.0911 16.14819,0.7527 8.95524,1.15537 16.79966,3.30999 24.77378,6.80467 7.61859,3.33885 12.78493,6.55654 18.82854,11.72676 3.07261,2.62859 3.66307,3.27651 3.77799,4.14582 l 0.13619,1.03032 -1.57165,-0.18411 c -0.8644,-0.10133 -1.57164,-0.13589 -1.57164,-0.077 0,0.0589 -0.42646,1.36154 -0.94767,2.89463 -1.08353,3.18703 -1.16761,3.09213 2.07737,2.34571 z m -256.1725,-23.42904 c 3.1626,-6.78262 7.0979,-15.44749 8.74513,-19.25527 1.64724,-3.80778 5.33411,-12.14213 8.19309,-18.52073 2.85893,-6.37862 5.19809,-11.71376 5.19809,-11.85586 0,-0.1421 -5.59256,-2.03508 -12.4279,-4.20664 l -12.42792,-3.9483 -7.85888,-3.91555 c -6.55636,-3.26659 -7.92851,-3.85053 -8.27886,-3.52323 -0.76732,0.71681 -9.71835,15.36578 -15.67268,25.64941 -3.22909,5.57694 -9.85387,16.84416 -14.72174,25.03831 l -8.85066,14.89843 3.94206,0.19948 c 12.88241,0.65191 23.28332,2.0365 30.23794,4.02532 2.46177,0.70397 4.31131,1.49553 11.92299,5.10272 3.05424,1.44742 5.70978,2.63441 5.90118,2.63778 0.19141,0.003 2.93557,-5.54327 6.09816,-12.32587 z m 218.73942,-42.90244 c 12.80997,-1.91286 24.69154,-2.74477 31.43374,-2.20086 2.30097,0.1856 4.88917,0.52654 5.75154,0.7576 0.86241,0.23109 1.61647,0.42154 1.67566,0.42327 0.25779,0.008 -0.43041,-2.00448 -1.44864,-4.23483 -1.28317,-2.81084 -2.72464,-4.8478 -4.86019,-6.86809 -0.83856,-0.79329 -7.85986,-7.63613 -15.60288,-15.20632 l -14.07823,-13.76395 -1.98494,1.24117 c -1.09172,0.68263 -6.4683,3.96909 -11.94797,7.30324 -9.93296,6.04373 -9.97882,6.06746 -15.18956,7.85969 -2.87457,0.9887 -5.34332,1.89625 -5.48607,2.01677 -0.14278,0.12053 0.95969,0.92016 2.44993,1.77696 1.96941,1.13233 5.16307,3.67991 11.69256,9.32717 7.95305,6.8785 9.14447,8.02808 10.39057,10.02575 0.82099,1.3161 1.61917,2.25636 1.91551,2.25636 0.2794,0 2.65945,-0.32126 5.28897,-0.71393 z m -133.23164,-1.90176 c 7.66252,-0.20809 14.3568,-0.57557 20.91461,-1.14813 9.34118,-0.81555 9.99449,-0.91443 20.74271,-3.13893 6.10379,-1.26327 13.44972,-2.93297 16.3243,-3.71048 5.29635,-1.43251 17.88872,-5.85845 28.90915,-10.16096 3.32374,-1.29761 10.67352,-4.10652 16.33285,-6.24199 5.65934,-2.13548 10.8053,-4.11644 11.43548,-4.40214 0.63016,-0.28573 5.18702,-2.99339 10.12636,-6.01705 7.52804,-4.60837 9.87139,-6.2233 14.48808,-9.98473 5.3218,-4.3359 5.64443,-4.6649 9.57137,-9.76024 6.26709,-8.13175 9.6523,-13.13124 9.29203,-13.72298 -0.20577,-0.33797 -3.87266,-1.46424 -11.68207,-3.58812 -6.26019,-1.70251 -12.05269,-3.23704 -12.87217,-3.41004 l -1.48995,-0.31452 -2.60688,2.40041 c -5.80248,5.34286 -7.10146,6.47593 -13.78301,12.02253 -5.52265,4.58453 -8.04794,6.4436 -12.24963,9.01786 -2.91104,1.78353 -8.21147,5.04638 -11.77873,7.25079 -7.02346,4.34016 -8.77273,5.14651 -16.70671,7.70113 -9.27651,2.98692 -32.50133,9.44964 -37.89222,10.54421 -5.19433,1.05466 -29.7257,3.23203 -42.30209,3.75464 l -9.96304,0.41405 -11.75966,-2.03203 c -16.66519,-2.87966 -22.71481,-4.45967 -35.44228,-9.25657 -5.47967,-2.06527 -10.55103,-4.04272 -11.26967,-4.39439 -0.71865,-0.35165 -4.76103,-2.36593 -8.98307,-4.47619 l -7.67642,-3.83683 -12.73964,-9.03599 c -7.00679,-4.96979 -13.42089,-9.59549 -14.25356,-10.27936 -0.83266,-0.68385 -3.34776,-3.19052 -5.58911,-5.57038 l -4.07518,-4.32703 -5.44262,-9.37523 -5.4426,-9.37522 -2.74516,-8.79828 c -1.50984,-4.83905 -3.86375,-13.07951 -5.23091,-18.31211 -2.38066,-9.11156 -2.51252,-9.80519 -3.11884,-16.40572 -0.54136,-5.89335 -0.58822,-7.81677 -0.32343,-13.2752 0.2994,-6.17193 0.75999,-13.22318 1.27431,-19.50857 0.13632,-1.6659 0.20848,-3.07484 0.16035,-3.13097 -0.12907,-0.15053 -23.07433,-6.10001 -23.52581,-6.10001 -0.21166,0 -0.53954,0.39194 -0.72865,0.87097 -0.18909,0.479 -1.00778,2.26389 -1.81931,3.96644 -2.07891,4.36136 -3.5881,12.20558 -4.27217,22.20519 -0.97804,14.29688 -0.37937,24.58077 2.25823,38.79147 1.26295,6.80451 3.298,13.31665 8.16926,26.14164 2.42716,6.39018 2.48874,6.50758 7.26202,13.84648 6.81786,10.48242 12.7197,17.38521 22.52305,26.34295 3.93486,3.59545 9.06523,8.0372 11.40083,9.87053 5.55258,4.35853 15.78076,10.73999 25.15259,15.69303 6.08036,3.21345 8.91473,4.50171 14.8629,6.75538 11.46039,4.34213 12.45059,4.68689 20.07535,6.98933 6.18995,1.86915 8.60617,2.42515 17.63948,4.05889 14.09137,2.54853 31.85942,5.00971 35.12968,4.86611 1.34746,-0.0591 7.52128,-0.24531 13.7196,-0.41364 z m 8.32974,-25.94526 c 3.23391,-0.15402 8.01127,-0.48677 10.61637,-0.73946 4.61236,-0.44739 15.97786,-2.02147 16.23491,-2.24844 0.0706,-0.0623 -3.64376,-6.06779 -8.25413,-13.34545 -4.61034,-7.27762 -8.85734,-13.98356 -9.43775,-14.90204 -0.58043,-0.91848 -6.64521,-7.93129 -13.47734,-15.58404 l -12.42202,-13.91407 -13.67938,-8.83443 c -7.52363,-4.85893 -17.94222,-11.61908 -23.15241,-15.02251 l -9.47305,-6.18805 0.0774,-1.41346 c 0.15167,-2.77233 -0.28216,-2.55223 5.77484,-2.92966 l 5.38312,-0.33546 8.95615,-5.27623 8.95615,-5.27623 -3.41464,-3.71432 c -2.81873,-3.0661 -3.33834,-3.77842 -2.97748,-4.08153 0.24045,-0.202 6.48002,-4.17731 13.86571,-8.83407 11.67146,-7.35897 14.13922,-9.05011 18.85974,-12.92465 l 5.43116,-4.45781 0.95714,-2.7539 c 0.52645,-1.51463 1.42229,-4.10003 1.99078,-5.7453 0.59667,-1.72675 1.15542,-2.8839 1.32169,-2.73708 0.16623,0.1468 -0.53297,2.63103 -1.6539,5.8761 l -1.94192,5.62176 -2.86376,2.4067 c -6.95705,5.84667 -9.45662,7.60719 -21.97321,15.47615 -7.27628,4.5745 -13.28011,8.35156 -13.34178,8.3935 -0.0617,0.042 1.4511,1.76857 3.36185,3.83694 l 3.47406,3.76068 -9.32037,5.49218 -9.3204,5.49215 -5.30894,0.35986 -5.30889,0.35984 -0.27896,1.55225 c -0.20802,1.1575 -0.17421,1.60939 0.13295,1.77702 0.22653,0.12367 10.60655,6.80255 23.06668,14.84202 l 22.65481,14.61721 2.54859,2.78888 c 1.40174,1.53391 7.01793,7.78662 12.48045,13.89495 l 9.93187,11.10602 8.61085,13.55802 c 4.73597,7.4569 9.06757,14.30442 9.62577,15.21671 0.55819,0.91227 1.10475,1.65869 1.21454,1.65869 0.10984,0 2.24985,-0.446 4.75567,-0.99112 5.3268,-1.15875 10.68018,-2.61757 14.35576,-3.91195 1.43729,-0.50618 9.21339,-3.12469 17.28023,-5.81896 l 14.66696,-4.89868 11.95558,-7.76566 c 11.89986,-7.72947 11.99943,-7.8028 21.3584,-15.73779 5.17154,-4.38469 9.36092,-8.00794 9.30974,-8.05167 -0.0512,-0.0437 -6.70791,-2.4173 -14.79267,-5.27461 l -14.69957,-5.19509 -14.14317,-6.6856 -14.14314,-6.68557 -14.60268,-9.23852 c -13.07233,-8.27033 -15.0401,-9.62036 -18.7768,-12.88222 l -4.17416,-3.64369 -1.05236,1.06877 c -0.5788,0.58784 -2.72997,2.6876 -4.78042,4.66618 l -3.72808,3.5974 -1.98842,0.30566 c -3.86854,0.59467 -5.09167,0.68788 -5.09167,0.38802 0,-0.16114 1.92934,-1.96369 4.2874,-4.00564 2.35807,-2.04196 7.14903,-6.37377 10.6465,-9.62625 5.21812,-4.85256 7.48931,-7.25931 12.65813,-13.41378 5.99429,-7.13735 6.52367,-7.87698 10.94232,-15.28882 3.50226,-5.87471 5.15779,-9.02528 6.73711,-12.8211 l 2.09381,-5.03244 0,-6.55118 0,-6.55114 -9.22806,2.70168 -9.22806,2.70168 -18.2928,1.14429 c -26.81224,1.67722 -33.63872,1.54366 -44.42536,-0.86927 -9.43594,-2.11075 -20.51716,-6.20737 -30.7286,-11.36002 -5.6701,-2.86109 -13.39731,-7.57421 -15.07365,-9.19398 l -1.58746,-1.53387 -1.93164,2.33602 c -1.57806,1.90842 -2.50817,3.57686 -5.08145,9.11501 -2.97326,6.39904 -3.19225,7.01386 -3.90698,10.96873 l -0.75716,4.18971 2.70419,3.44703 c 3.27869,4.17935 3.30411,4.22831 2.09048,4.02514 -2.55858,-0.42828 -6.50156,-0.91624 -6.62055,-0.81931 -0.074,0.0603 -0.31379,2.15477 -0.53275,4.65436 -0.54617,6.23429 -2.17076,21.54001 -2.30022,21.6712 -0.058,0.0587 -0.76843,0.019 -1.5787,-0.0883 -1.38114,-0.18289 -1.46356,-0.2437 -1.31813,-0.97225 0.38317,-1.91991 2.42387,-19.48895 2.2786,-19.61724 -0.0894,-0.0789 -6.00744,-0.19809 -13.15125,-0.26475 l -12.98872,-0.12125 -17.47615,-2.00156 c -16.13852,-1.8484 -17.62856,-2.06567 -19.46739,-2.83862 l -1.99123,-0.83702 -0.41657,15.33631 c -0.36972,13.61106 -0.35772,16.0989 0.10661,22.11531 0.5059,6.55443 0.58869,7.01777 2.49905,13.98627 5.21822,19.03479 6.15202,21.51962 12.84614,34.18344 l 4.95338,9.37069 4.96511,5.37711 4.96509,5.37711 15.36152,10.49278 15.3615,10.49277 8.41922,3.56302 c 5.23083,2.2137 12.5563,4.97842 19.34366,7.3005 10.16811,3.47875 11.59289,3.88382 20.57939,5.85104 7.41283,1.62269 10.83074,2.22642 14.71812,2.59981 9.90973,0.9518 20.0588,1.20049 29.88911,0.73237 z M 338.27622,570.57799 c -2.96197,-5.18268 -3.5601,-6.44426 -2.93992,-6.20086 0.13475,0.0528 2.44993,1.38471 5.14485,2.95963 5.87019,3.43056 12.66103,7.10123 14.12792,7.63659 0.5839,0.21313 1.06163,0.48161 1.06163,0.59661 0,0.24339 -6.53183,0.58753 -11.07595,0.58354 l -3.13362,-0.003 -3.18491,-5.57277 z m 355.32121,37.55243 c 11.25066,-1.94173 19.3969,-6.31976 22.54163,-12.11454 0.62753,-1.15641 1.14101,-2.37824 1.14101,-2.71524 0,-0.69607 -11.99142,-14.06455 -20.03594,-22.33682 -1.15718,-1.18993 -3.82558,-4.04577 -5.9298,-6.3463 -2.10426,-2.30054 -3.92132,-4.17513 -4.03798,-4.16578 -0.11664,0.01 -1.09404,0.39241 -2.172,0.85125 -4.20829,1.79112 -8.93717,0.81169 -12.85729,-2.66301 -3.67688,-3.25908 -7.36432,-9.19489 -8.63874,-13.90619 l -0.69055,-2.55274 -2.13631,-0.92728 c -5.69108,-2.47018 -10.25265,-6.56845 -13.32728,-11.97363 -0.54147,-0.95194 -1.17364,-2.28893 -1.40482,-2.97107 l -0.42027,-1.24028 -0.70575,1.52874 c -0.79975,1.73245 -3.65947,5.9044 -5.8414,8.52182 -1.36645,1.63919 -1.59132,1.78206 -3.36357,2.13694 -1.24704,0.24972 -4.11163,0.37374 -8.34249,0.36111 l -6.44331,-0.0194 1.7256,1.7546 c 0.94907,0.96502 3.40759,3.50651 5.46334,5.64776 2.05575,2.14127 8.64057,8.89142 14.63293,15.00034 6.30183,6.42442 18.12871,19.09338 28.05258,30.04987 l 17.15738,18.94268 1.18321,-0.1496 c 0.6508,-0.0823 2.65321,-0.40331 4.44982,-0.71338 z m -469.92338,0.50578 c -0.70475,-0.60572 -4.31965,-2.77527 -4.44286,-2.66646 -0.088,0.0777 0.8434,0.7358 2.06986,1.46239 1.93531,1.14652 2.84031,1.60571 2.373,1.20407 z m -0.12823,-1.39749 c -0.0743,-0.19832 -0.6473,-2.82699 -1.27352,-5.84148 -0.94252,-4.53712 -2.14745,-14.59843 -2.17644,-18.17351 -0.003,-0.39271 -0.43364,-0.7518 -1.34825,-1.12465 -3.62744,-1.47877 -9.86972,-8.09401 -15.95155,-16.90462 l -1.69256,-2.45198 0.15967,7.06748 c 0.17374,7.69054 0.46456,9.39411 2.56065,15.00035 3.35942,8.98518 10.22522,17.2018 18.40166,22.02213 1.49996,0.88428 1.49913,0.88405 1.32034,0.40628 z m 359.04851,-45.92422 c 6.64663,-1.2489 11.60251,-3.77824 13.34173,-6.80918 l 0.77496,-1.35051 -1.58952,-0.76399 c -5.61648,-2.69948 -11.95254,-6.9261 -16.67068,-11.12051 -8.83852,-7.85741 -12.93032,-15.46399 -13.2776,-24.68277 -0.13274,-3.52355 -0.0497,-4.46159 0.65084,-7.35593 0.44164,-1.82457 0.78064,-3.33301 0.75337,-3.35206 -0.0274,-0.019 -4.47935,0.031 -9.8935,0.11137 l -9.84391,0.14608 -0.16244,1.18673 c -0.39081,2.85476 -3.17347,7.41361 -8.0062,13.1166 l -2.77598,3.27588 0.20309,2.06078 c 0.46607,4.72973 3.07545,11.80678 5.97146,16.19577 6.62486,10.04014 17.0315,16.37571 31.28075,19.04372 4.2825,0.80186 6.22843,0.8646 9.24363,0.29802 z m 56.57492,-0.66342 c -0.24555,-0.27765 -3.66702,-3.86235 -7.60324,-7.96602 -3.93621,-4.10367 -8.83463,-9.4259 -10.88536,-11.8272 -2.9714,-3.47939 -3.98943,-4.46612 -5.01307,-4.85899 -0.70646,-0.27114 -1.28145,-0.40094 -1.27769,-0.28847 0.003,0.11251 0.21518,2.01905 0.46983,4.23681 0.2547,2.21778 0.40486,4.08372 0.33372,4.14654 -0.14847,0.13111 -1.10812,-1.75974 -2.95298,-5.81835 l -1.28726,-2.83198 -9.71805,-6.52832 c -5.34493,-3.59057 -9.71805,-6.61363 -9.71805,-6.71788 0,-0.10427 0.47774,-0.31648 1.06164,-0.4716 1.02358,-0.27193 1.3962,-0.0833 10.3972,5.26511 10.4379,6.20212 11.2701,6.6197 15.6537,7.85493 9.90503,2.79102 17.25696,1.49859 21.20958,-3.72848 0.76059,-1.00586 1.74637,-2.91875 2.33423,-4.52956 0.88279,-2.41892 0.99983,-3.10003 0.88341,-5.14068 -0.11006,-1.93009 -0.32963,-2.70679 -1.22294,-4.32703 -1.43886,-2.60971 -5.5143,-6.17798 -10.30132,-9.01928 -5.35215,-3.1767 -6.36982,-3.95804 -6.36982,-4.89051 0,-0.62884 -1.30679,-2.02566 -6.39144,-6.83184 -6.57188,-6.2119 -7.38607,-6.79689 -13.2368,-9.51013 -0.83907,-0.38915 -0.89738,-0.34054 -7.77058,6.47784 l -6.92516,6.86993 -3.33572,1.42792 c -3.00577,1.28666 -4.03862,1.5511 -10.44074,2.67309 l -7.10502,1.24518 -0.86398,2.33957 c -1.15784,3.13533 -1.43321,8.47159 -0.62137,12.04122 2.53296,11.13703 12.70637,21.73778 30.61907,31.90526 3.67842,2.0879 4.66943,2.49877 8.81974,3.65671 12.80473,3.57241 23.0387,5.57046 28.80665,5.62409 2.71472,0.0251 2.86996,-0.005 2.45182,-0.47788 z m 46.83789,-2.72446 c 2.13375,-2.22453 3.04087,-6.8708 2.10197,-10.76619 -0.67436,-2.79774 -2.20932,-6.18263 -4.10279,-9.04747 l -1.59777,-2.41744 -0.53164,1.40781 c -1.72932,4.5796 -6.88129,7.03787 -13.10542,6.25329 -1.25762,-0.1585 -2.34003,-0.24958 -2.40533,-0.20233 -0.28269,0.2045 1.42351,4.51497 2.72945,6.89558 3.38651,6.17329 8.24512,9.30536 13.88547,8.95126 1.90855,-0.11983 2.21457,-0.2285 3.02606,-1.07451 z m -147.81315,-15.22952 1.39193,-0.003 -1.3528,-2.37604 c -2.95442,-5.18908 -4.78931,-10.7153 -4.44737,-13.39433 0.0894,-0.70107 0.0698,-1.23652 -0.0438,-1.18985 -0.11356,0.0466 -1.46101,0.62203 -2.99434,1.27861 -2.91505,1.24826 -6.62947,2.37407 -9.95178,3.01625 -3.15732,0.61032 -10.25427,0.46165 -13.39293,-0.28056 -3.26295,-0.77159 -7.32558,-2.47171 -10.41856,-4.35991 -2.2869,-1.3961 -6.5092,-5.00818 -8.55267,-7.31654 l -0.98454,-1.11222 -9.85893,4.35504 -9.85891,4.35503 0.1989,0.93998 c 0.10939,0.51696 0.28975,1.02744 0.40071,1.13437 0.55356,0.53329 19.71539,7.55677 23.09534,8.46522 8.80641,2.367 21.14003,4.75171 29.86159,5.77376 4.53141,0.53098 12.60246,0.99509 14.37291,0.82642 0.62882,-0.0599 1.76966,-0.11031 2.53525,-0.11207 z m -215.42082,-3.86132 c -5.87966,-5.31065 -8.34866,-8.06252 -17.63205,-19.65202 -9.17764,-11.45747 -9.66357,-12.13382 -15.54426,-21.63512 -6.0429,-9.76343 -6.09595,-9.86487 -11.68952,-22.35631 -3.09048,-6.9016 -7.3757,-17.09174 -9.52269,-22.64476 -3.54742,-9.17514 -4.3046,-11.53092 -8.29824,-25.81792 -2.41705,-8.64683 -4.45698,-15.8801 -4.5332,-16.07392 -0.0926,-0.23524 -1.5629,0.25986 -4.42402,1.48968 -2.99544,1.28753 -7.57652,2.81055 -15.21851,5.05954 -10.13433,2.98244 -11.68966,3.3546 -21.28929,5.09409 l -10.35622,1.8766 -7.7581,-0.11547 c -4.26695,-0.0635 -7.75811,-0.0286 -7.75811,0.0779 0,0.58434 1.52972,3.87144 3.75666,8.07241 1.38772,2.61785 4.10301,7.81688 6.03398,11.55342 3.43169,6.64051 3.68037,7.01771 11.03078,16.73115 7.49364,9.90272 7.54815,9.96524 15.58076,17.87037 9.61613,9.46348 26.71808,24.36674 35.41986,30.86611 6.94569,5.18776 12.2315,8.32707 27.0899,16.08915 9.18347,4.79746 11.6115,5.90665 23.84598,10.89331 7.49177,3.05359 13.74725,5.48497 13.90104,5.40304 0.15382,-0.0819 -1.03181,-1.33352 -2.63475,-2.78133 z m 351.44781,1.63559 c 7.21543,-2.98175 8.62182,-8.5686 4.19689,-16.67212 -1.77008,-3.24163 -8.59137,-11.60361 -10.51744,-12.89294 l -1.1611,-0.77732 -0.19099,1.80599 c -0.37517,3.54791 -2.36798,6.90282 -5.18497,8.72894 -2.67633,1.73493 -5.35844,2.44933 -9.9959,2.6625 l -4.01112,0.18437 1.34001,2.44485 c 3.57569,6.52383 8.75689,11.37855 14.81612,13.88251 4.6955,1.94041 7.18855,2.08785 10.7085,0.63322 z m -405.44104,-2.41541 c 0,-0.171 -0.59514,-2.12996 -1.32255,-4.35319 -1.04922,-3.20689 -1.55554,-5.62948 -2.44995,-11.72233 -0.66675,-4.54203 -1.29424,-7.81908 -1.5357,-8.0203 -0.22457,-0.18709 -3.05421,-2.31899 -6.28812,-4.73754 -9.31644,-6.96752 -24.06979,-19.41395 -32.64164,-27.53759 -7.26485,-6.88499 -8.18145,-7.87805 -13.00484,-14.08946 -3.46153,-4.45764 -7.45829,-10.18781 -12.00494,-17.21149 l -6.81581,-10.5291 -3.14104,-7.92122 c -1.72758,-4.35668 -3.18749,-7.96225 -3.24425,-8.01239 -0.0568,-0.0501 -4.93804,-0.53594 -10.84731,-1.07965 -10.43868,-0.96042 -10.92925,-1.03395 -17.25627,-2.58641 -3.58168,-0.87882 -6.62959,-1.76123 -6.77313,-1.96089 -0.14355,-0.19968 -0.26323,-0.63711 -0.26599,-0.97208 -0.003,-0.47208 0.16029,-0.58487 0.72998,-0.50144 2.97289,0.43527 31.55279,3.56276 31.97454,3.49898 0.46022,-0.0696 0.29263,-0.83615 -1.21592,-5.56165 -1.48665,-4.65686 -2.2632,-8.16983 -5.16511,-23.36593 -2.13158,-11.16214 -4.03821,-20.18388 -5.07224,-24.00069 l -1.65683,-6.11564 -0.004,-15.80795 -0.004,-15.80795 1.67938,-12.54837 1.67937,-12.54838 4.20503,-10.66184 c 2.31276,-5.86402 4.20503,-10.75457 4.20503,-10.86788 0,-0.11331 1.71218,-2.83302 3.80486,-6.04378 l 3.80488,-5.83779 -0.24097,-10.26614 c -0.13253,-5.64639 -0.33906,-10.77744 -0.45893,-11.40238 l -0.21796,-1.13622 -7.50447,7.54837 -7.50447,7.54836 -8.5804,12.88246 -8.5804,12.88242 -6.52988,15.46586 -6.52987,15.46586 -2.2664,8.65405 c -2.25399,8.60662 -2.27388,8.71964 -3.63152,20.62549 l -1.36511,11.97143 0.34832,17.74081 0.34834,17.7408 0.96668,3.60585 c 0.53168,1.98322 2.31876,9.44734 3.97128,16.58694 2.84547,12.29353 3.12429,13.26896 5.26435,18.41642 1.94858,4.68695 2.72288,6.11691 5.62321,10.38486 1.8499,2.72225 5.18222,7.67554 7.40514,11.00734 3.83826,5.75299 7.53406,10.46027 13.02275,16.58693 10.54636,11.77223 19.48223,20.51166 24.24797,23.71499 1.01262,0.68064 4.18224,3.18575 7.04361,5.56692 3.81246,3.17266 6.15706,4.86173 8.77521,6.32175 1.96501,1.09578 9.12323,5.16185 15.90716,9.03572 7.76448,4.43382 17.2046,9.48857 25.47925,13.64295 7.22966,3.62976 13.25508,6.60482 13.38983,6.61129 0.13475,0.007 0.24499,-0.12814 0.24499,-0.29918 z m 56.17791,-6.82865 c 2.09142,-6.25783 5.38276,-14.76664 6.69784,-17.31529 0.86562,-1.67758 1.59501,-2.58496 2.95063,-3.67078 l 1.80079,-1.44235 -0.4889,-2.01927 c -0.61486,-2.53953 -0.61938,-5.26111 -0.01,-6.20207 0.67045,-1.03572 0.649,-1.06093 -1.07631,-1.26302 -7.88174,-0.92334 -30.07442,-7.71247 -49.29951,-15.08165 -0.48377,-0.18544 6.93924,12.02967 10.1078,16.63313 5.02877,7.30607 26.88795,34.61621 27.70697,34.61621 0.10393,0 0.82883,-1.91471 1.61094,-4.25491 z m 102.90406,0.48246 10.94301,-0.88902 9.75467,-2.29887 c 15.45029,-3.64113 20.75291,-5.2383 26.68902,-8.03883 12.07756,-5.69788 20.18074,-10.32437 20.72238,-11.83133 0.1046,-0.29097 1.69054,-1.60535 3.52443,-2.92083 1.83385,-1.3155 5.46572,-4.08105 8.07081,-6.14567 5.52201,-4.37636 5.34499,-3.92349 3.28016,-8.39128 -1.5233,-3.29605 -3.57141,-6.54247 -6.09134,-9.6553 -1.87589,-2.31727 -5.5713,-6.05784 -5.98468,-6.05784 -0.13795,0 -2.11239,2.1358 -4.38765,4.7462 -3.82251,4.38552 -4.52139,5.02567 -9.19769,8.4244 -3.64239,2.6473 -5.44952,3.77008 -6.44769,4.00596 -3.99449,0.94401 -5.50976,1.48729 -7.59336,2.72242 -12.30034,7.29145 -26.17024,11.74929 -41.81211,13.43856 -5.47206,0.59098 -16.73101,0.66686 -21.55936,0.1453 -1.79662,-0.19405 -5.9125,-0.86581 -9.1464,-1.49276 -5.07831,-0.98457 -6.99377,-1.53252 -14.05149,-4.01978 l -8.17165,-2.87984 -6.20125,0.17282 c -3.4107,0.095 -11.05211,0.0457 -16.98094,-0.10985 -10.30348,-0.2702 -10.85458,-0.25794 -12.47494,0.27722 -2.11987,0.7002 -3.6975,2.19689 -3.6874,3.49834 0.0115,1.49687 1.07778,3.16113 3.44447,5.37668 2.85427,2.67194 6.18737,4.87592 11.98103,7.9223 4.28868,2.25507 5.88303,2.8646 20.17293,7.71233 l 15.51621,5.26378 13.39294,0.92096 c 7.36612,0.50652 13.83393,0.93714 14.37291,0.95696 0.53898,0.0199 5.90433,-0.36404 11.92298,-0.85303 z m 93.60028,-4.1679 c 4.76899,-1.07818 10.21492,-4.08766 14.2753,-7.88868 2.17972,-2.04049 4.68499,-5.90452 6.32903,-9.76172 3.49281,-8.19469 3.76354,-18.57514 0.71695,-27.48743 -0.98373,-2.87776 -5.63796,-12.01243 -7.91972,-15.5438 -7.71204,-11.93546 -17.22878,-18.50821 -28.42478,-19.63165 -3.35381,-0.33656 -7.53186,0.003 -10.74662,0.87377 -2.05651,0.55695 -2.53095,0.82736 -3.96899,2.26222 -0.89831,0.89634 -5.38167,5.29215 -9.96303,9.76847 -5.03069,4.91536 -8.41149,8.45244 -8.53611,8.93072 -0.58357,2.23969 -0.17554,7.18295 1.0536,12.76334 0.64113,2.91093 2.19804,8.57489 2.47558,9.00616 0.0736,0.11432 2.73692,-1.6191 5.91859,-3.85204 5.52132,-3.87502 5.96675,-4.2655 9.77953,-8.57346 2.19709,-2.48244 3.95303,-4.64335 3.90208,-4.80201 -0.32369,-1.00811 -5.94212,-2.04299 -9.88716,-1.82116 -2.70034,0.15185 -2.74101,-0.29516 -0.12128,-1.33338 2.41114,-0.95556 5.77755,-1.08014 8.31811,-0.30786 5.53352,1.68208 11.28173,7.2071 16.6397,15.99355 4.04094,6.6267 4.90896,9.18616 4.89743,14.44064 -0.006,2.48455 -0.18372,4.18894 -0.57322,5.4809 -0.67222,2.22957 -2.6597,6.05783 -3.14499,6.05783 -0.46372,0 -0.43661,-0.29259 0.32085,-3.46162 0.75179,-3.14531 1.18158,-9.04533 0.73327,-10.06662 -0.28824,-0.65667 -0.6308,-0.4104 -6.82112,4.90396 -4.93529,4.23694 -7.72008,6.3618 -11.47053,8.7523 l -4.95287,3.15695 1.10221,1.0774 c 5.39405,5.27257 12.69013,9.49361 18.89051,10.92885 2.97048,0.6876 8.43993,0.75333 11.17768,0.13437 z m 132.60974,-6.58674 c 2.50716,-0.59142 4.1149,-1.43305 5.8293,-3.05162 2.62302,-2.47639 3.79108,-5.74589 3.80139,-10.64036 0.004,-2.21532 -0.19935,-3.33446 -1.15708,-6.34631 -4.1602,-13.08288 -11.55108,-20.2436 -20.89426,-20.2436 -1.31384,0 -2.58457,0.066 -2.82385,0.14668 -0.33215,0.11201 -0.41057,0.82972 -0.33156,3.03393 0.12806,3.57275 -0.6066,6.38595 -2.65876,10.18127 -1.41396,2.61499 -4.29125,6.43587 -6.12998,8.14032 l -0.9458,0.8767 1.02609,0.53528 c 2.55695,1.33385 7.58776,4.96276 10.00081,7.21397 3.33748,3.11361 4.74169,5.47496 4.92086,8.27501 0.11848,1.85161 0.16836,1.95609 0.98725,2.0673 2.0304,0.27572 6.86921,0.16679 8.37559,-0.18857 z M 426.88194,507.17793 c 4.63026,-0.43222 10.43911,-1.52851 15.02623,-2.83593 2.24577,-0.64006 4.24922,-1.26214 4.45214,-1.38238 0.23123,-0.13699 -1.52432,-1.68609 -4.70347,-4.15033 l -5.07244,-3.93177 -1.50297,1.02124 c -3.44264,2.33916 -9.14967,4.1165 -16.82938,5.24118 -6.44795,0.9443 -10.60031,1.22567 -20.93257,1.41834 l -9.79972,0.18277 3.12801,0.92774 c 11.76697,3.48999 23.87605,4.66272 36.23417,3.50914 z m 134.90938,-3.72468 c 9.51352,-0.50387 11.2663,-0.67746 16.87317,-1.67116 l 6.25682,-1.10887 3.54289,-2.66861 c 3.50646,-2.64117 9.63273,-8.54586 15.58742,-15.02364 2.92309,-3.17987 3.18115,-3.5803 6.22501,-9.65989 3.87529,-7.74021 4.53837,-9.90998 4.54118,-14.85992 0.003,-4.16626 -0.51307,-6.31908 -2.35751,-9.84646 l -1.20083,-2.29656 -1.28121,3.4753 c -0.70467,1.91142 -1.38202,3.47529 -1.50524,3.47529 -0.12321,0 -0.54163,-0.22717 -0.92983,-0.50482 l -0.70581,-0.50482 1.48626,-5.31033 c 1.69748,-6.06504 1.85326,-8.18635 0.85431,-11.63551 -1.01496,-3.50452 -3.21242,-6.88476 -6.61396,-10.17399 -2.11641,-2.04651 -5.4427,-4.52936 -5.80391,-4.33219 -0.14529,0.0793 -0.37105,1.67147 -0.50172,3.53817 -0.13066,1.86672 -0.30434,3.49175 -0.38597,3.61117 -0.0816,0.11943 -0.41854,0.0895 -0.74874,-0.0666 -0.55557,-0.26256 -0.61192,-0.90268 -0.75551,-8.58272 -0.16932,-9.053 -0.32558,-9.98977 -2.27452,-13.63563 -0.71734,-1.3419 -1.75447,-2.5389 -3.64768,-4.20979 -3.45107,-3.04589 -5.73532,-4.03444 -13.16193,-5.6961 l -5.61673,-1.25671 0.13562,0.74944 c 0.0746,0.41222 0.29354,3.02116 0.48653,5.79766 0.19298,2.77651 0.4206,5.34028 0.50579,5.69725 0.13367,0.55998 0.0196,0.64906 -0.83125,0.64906 -0.5424,0 -0.98597,-0.0974 -0.98568,-0.21636 2.9e-4,-0.11898 -0.37945,-2.80319 -0.84385,-5.96485 -0.82657,-5.62686 -0.90263,-5.89829 -3.59378,-12.82571 -1.51213,-3.89245 -2.74934,-7.10347 -2.74934,-7.13561 0,-0.32049 -4.78759,-3.28159 -6.94252,-4.29394 -8.22098,-3.86202 -16.89487,-3.18757 -25.70138,1.99845 -5.6301,3.31548 -7.15379,4.90292 -15.3439,15.98567 l -7.31898,9.90399 -5.53047,4.47054 c -3.04176,2.45879 -5.59603,4.41264 -5.67615,4.34191 -0.0801,-0.0708 0.59405,-1.25975 1.49814,-2.64217 0.90406,-1.38245 1.64377,-2.58378 1.64377,-2.66966 0,-0.18603 -5.34953,-5.63635 -6.00023,-6.11322 -0.49123,-0.36004 -0.77316,0.77901 -1.67006,6.74753 -0.31765,2.11362 -1.08666,4.59106 -2.87704,9.26832 l -2.44352,6.38361 3.28401,0.20561 3.28402,0.20559 2.16413,1.52488 c 2.75957,1.94442 5.32131,5.3004 6.21158,8.13746 l 0.63441,2.02168 -0.98827,3.13299 c -0.70112,2.22265 -1.32235,3.53494 -2.13811,4.51628 -0.69486,0.83593 -0.97772,1.3833 -0.71482,1.3833 0.23927,0 1.56168,-0.33134 2.93867,-0.73632 l 2.5036,-0.73628 5.82726,0.89794 5.82724,0.89798 4.24334,2.2182 c 5.1749,2.70517 7.95299,4.6294 11.64944,8.0688 4.29453,3.99595 7.46636,8.49208 9.10036,12.89985 0.48524,1.30907 1.13872,2.37439 1.85792,3.02891 1.45402,1.32324 2.82829,3.85473 3.83678,7.06748 1.4077,4.48445 1.85134,8.09436 2.04729,16.65904 l 0.18313,8.00501 1.99701,-0.0119 c 1.09836,-0.007 6.77435,-0.26481 12.61335,-0.57408 z m -107.52647,-3.16418 c 3.26373,-1.03127 5.93451,-1.94185 5.9351,-2.02349 0,-0.15892 -20.87257,-11.14247 -21.72414,-11.43102 -0.58964,-0.19983 -6.39959,1.93877 -6.26854,2.3074 0.18126,0.50987 15.42784,13.17834 15.76822,13.10192 0.19541,-0.0439 3.02563,-0.92354 6.28936,-1.95481 z m -46.32902,-0.14106 c 8.37601,-0.74124 14.52663,-1.72267 19.27277,-3.07533 2.62759,-0.74887 6.2334,-2.37825 7.13171,-3.22268 l 0.6733,-0.63294 -1.86089,-1.82479 -1.8609,-1.82478 -4.89986,1.44744 c -7.33512,2.16685 -23.74702,5.60318 -37.46181,7.84377 l -3.81614,0.62344 0.37879,0.73412 0.37875,0.73412 8.50057,-0.17715 c 4.67528,-0.0974 10.77896,-0.37878 13.56371,-0.62522 z m 220.27453,-0.79646 c 4.48356,-4.21513 6.96316,-9.08828 7.31169,-14.36962 0.61715,-9.35251 -4.6705,-17.1077 -15.52176,-22.76494 -1.36664,-0.71249 -2.50174,-1.13345 -2.65709,-0.98538 -0.14915,0.14216 -0.72005,1.95567 -1.2686,4.03002 -0.87346,3.30284 -1.48525,4.69445 -4.92266,11.19759 -2.15888,4.08431 -4.01135,7.66564 -4.11663,7.95855 -0.15752,0.4383 0.39215,0.80206 3.10546,2.05511 3.6224,1.67289 4.66633,2.57694 12.36387,10.70742 1.91111,2.01862 3.6143,3.67371 3.78478,3.67797 0.17052,0.004 1.03495,-0.67376 1.92094,-1.50672 z m -262.57662,-0.80243 c 26.81845,-1.73162 50.22912,-6.1423 66.47472,-12.5242 1.34745,-0.52934 3.91988,-1.5101 5.71649,-2.17944 4.70207,-1.75184 16.03109,-6.79404 20.41607,-9.08661 10.87027,-5.68317 18.18362,-11.07727 20.59794,-15.19241 0.34146,-0.58202 2.18426,-2.39936 4.09514,-4.03856 10.29757,-8.83351 15.61274,-16.5033 14.49345,-20.91396 -0.7569,-2.9825 -2.90022,-5.78491 -5.31109,-6.94424 -1.55449,-0.74754 -5.73038,-0.65517 -8.0339,0.17767 -0.96853,0.35021 -8.24482,4.08944 -16.16952,8.30947 l -14.40854,7.67281 -7.83978,-0.157 -7.83977,-0.15698 -3.4852,-1.04119 c -10.65396,-3.18282 -22.13065,-2.2163 -34.08035,2.87003 -1.97629,0.8412 -4.8427,2.26545 -6.36983,3.16501 -5.57293,3.2828 -16.90008,8.55064 -23.97802,11.15127 l -6.89106,2.53199 -5.62281,0.01 -5.62278,0.009 -12.23815,-3.75441 c -10.7834,-3.30814 -27.48263,-9.20716 -46.52429,-16.43476 -4.55164,-1.72768 -8.87278,-2.12475 -14.19797,-1.30466 -2.81057,0.43282 -6.57106,1.49599 -8.77669,2.48137 l -1.19207,0.53257 1.74175,5.27349 c 2.10045,6.35963 10.30441,26.25368 12.19658,29.57591 l 1.35484,2.3788 3.5197,1.55883 c 1.93583,0.85735 6.23409,2.59312 9.55168,3.85727 17.90339,6.82196 34.3369,11.14083 46.21078,12.14458 4.23008,0.35759 16.86724,0.374 22.21268,0.0289 z m 12.24964,-13.57925 c -10.04003,-0.99998 -22.99264,-5.16952 -32.01239,-10.30501 -0.98814,-0.5626 -2.37264,-1.09598 -3.07665,-1.18526 -1.78178,-0.22596 -1.83503,-0.78477 -0.13733,-1.44151 2.0504,-0.79316 4.93017,-0.88354 6.00655,-0.18851 0.60823,0.39275 0.59827,0.42042 -0.27796,0.77298 l -0.90876,0.36566 2.6274,1.5093 c 5.30984,3.05023 11.15201,5.18712 18.16844,6.64556 3.63654,0.75587 4.36973,0.81005 11.08066,0.81885 6.29204,0.008 7.62029,-0.0731 10.67205,-0.65309 7.63819,-1.45181 14.32117,-3.85602 21.32639,-7.67228 1.60925,-0.87669 2.98411,-1.54258 3.05519,-1.47982 0.22807,0.20141 -2.31984,2.71899 -4.37188,4.31981 -4.38152,3.41819 -9.82198,6.11816 -14.83888,7.36426 -5.12058,1.27182 -11.62213,1.69585 -17.31283,1.12906 z m 42.23787,-22.62353 c -3.4606,-0.82332 -8.83186,-3.43592 -12.61602,-6.13647 l -1.24721,-0.89007 1.3258,-0.59731 c 4.28159,-1.92893 13.39885,-4.74885 18.31815,-5.66569 3.62334,-0.6753 9.99867,-0.74534 10.4758,-0.1151 1.21979,1.61128 -1.63593,5.9109 -7.47411,11.25313 l -2.83836,2.59728 -2.12327,-0.0211 c -1.16781,-0.0115 -2.88716,-0.20268 -3.82078,-0.42483 z m 43.34628,32.00322 c 0,-4.45178 -0.76699,-17.05193 -1.08767,-17.86873 l -0.38228,-0.97362 -4.40988,2.17071 c -2.42543,1.19388 -7.16764,3.48143 -10.53825,5.08341 l -6.12835,2.91272 11.02821,4.98926 c 6.06553,2.74409 11.13848,4.99396 11.27323,4.99977 0.13474,0.005 0.24499,-0.5853 0.24499,-1.31352 z m 6.04316,-0.75117 c 1.07797,-0.56494 2.73166,-1.19742 3.67488,-1.40556 0.94323,-0.20813 1.71495,-0.50136 1.71495,-0.65162 0,-0.15023 -0.73497,-2.3923 -1.63327,-4.98234 l -1.63329,-4.70916 0,-6.06914 c 0,-3.33804 -0.0724,-6.06914 -0.16082,-6.06914 -0.0884,0 -1.55842,0.79153 -3.26657,1.75896 l -3.10576,1.759 0.007,2.06321 c 0.004,1.13477 0.22062,5.95756 0.48136,10.71729 0.26071,4.75972 0.47793,8.83126 0.4827,9.04781 0.007,0.32718 0.13288,0.32394 0.74361,-0.0194 0.40424,-0.22714 1.61695,-0.87517 2.69491,-1.44008 z M 363.51047,458.92034 c 1.88645,-0.37062 5.34085,-1.35064 7.67644,-2.17776 5.16719,-1.82992 14.67599,-6.37513 18.45612,-8.82199 14.77719,-9.56532 28.37164,-13.03618 36.52268,-9.32474 2.67984,1.22022 9.00398,2.26517 13.72113,2.26719 2.53774,0 4.20845,0.14983 5.33385,0.47487 1.52481,0.44043 1.83491,0.43928 4.46221,-0.0164 6.48979,-1.12607 15.54244,-5.47031 27.90098,-13.38938 l 4.04611,-2.59266 3.47203,-8.46369 3.47208,-8.46369 2.32399,-12.98108 c 2.80658,-15.67632 3.93348,-27.14092 3.92584,-39.93957 -0.004,-6.51987 -0.39734,-8.92495 -2.16436,-13.22993 -4.30783,-10.49514 -9.98,-16.9991 -16.69783,-19.14649 -2.46228,-0.78705 -6.9516,-0.8424 -9.69812,-0.11954 -7.4501,1.96081 -16.62877,8.52482 -24.07489,17.21695 -1.56406,1.82581 -11.38948,17.90967 -11.38569,18.638 0,0.12845 1.33256,2.37544 2.95974,4.99329 2.21617,3.56545 3.24596,5.59211 4.10415,8.07712 0.63008,1.82457 1.85848,5.26455 2.72971,7.64441 l 1.58409,4.32703 1.13575,10.5291 1.13572,10.52909 -0.63264,8.68834 -0.63263,8.68832 -1.71044,3.86006 c -1.69293,3.82045 -1.724,3.86417 -3.0301,4.26581 -1.23901,0.38101 -1.46794,0.35661 -3.74712,-0.39927 -2.673,-0.88649 -3.61779,-1.53663 -5.66854,-3.90084 -3.99293,-4.6032 -7.48836,-11.84422 -9.43961,-19.55483 l -0.75105,-2.96791 -0.58824,2.82367 c -1.74338,8.36853 -3.96069,16.25427 -5.2388,18.63134 -0.75102,1.39673 -0.97131,1.56384 -3.18696,2.41788 -2.87609,1.10856 -3.80889,1.0403 -6.61723,-0.48417 -7.55809,-4.10283 -22.61659,-12.95912 -27.93871,-16.4315 -3.5034,-2.28576 -9.67721,-6.23317 -13.71959,-8.772 -4.04239,-2.53885 -11.733,-7.78513 -17.09028,-11.65842 -5.35727,-3.87329 -9.8002,-6.98962 -9.87318,-6.92517 -0.073,0.0645 0.67236,2.08882 1.65632,4.4986 3.30502,8.09414 6.24774,17.98456 7.56959,25.44143 0.45429,2.56285 0.58318,4.92491 0.56665,10.38487 -0.0203,6.71845 -0.0646,7.20994 -0.89504,9.95216 -0.48051,1.58657 -1.39237,3.8164 -2.02635,4.95519 -1.34615,2.41794 -3.69136,4.70849 -4.82084,4.70849 -1.74614,0 -6.21514,-3.12504 -9.28186,-6.49053 -5.98302,-6.56586 -10.53583,-15.67814 -14.30447,-28.62971 -0.77339,-2.65794 -1.79165,-5.79031 -2.26278,-6.96083 -1.85456,-4.60761 -3.05922,-14.46083 -2.64943,-21.67043 0.27555,-4.84786 1.04831,-10.19578 1.66011,-11.48883 l 0.49972,-1.0562 -1.89493,-1.50474 c -6.0726,-4.82229 -13.0153,-8.00854 -19.69775,-9.04013 -4.77136,-0.73655 -11.56984,-0.22091 -15.88504,1.20487 -3.22689,1.06618 -6.44798,5.01782 -7.92382,9.72093 -2.59848,8.28074 -1.37029,19.22881 3.75936,33.51061 1.55137,4.3193 2.40581,6.06865 5.91756,12.11567 4.86118,8.37063 7.09154,11.34143 15.67564,20.87955 l 6.4594,7.17732 6.32885,2.40836 c 22.42503,8.53361 42.19846,14.72377 51.3261,16.06783 2.23944,0.32975 5.97512,0.12725 9.1464,-0.49588 z M 274.9441,438.78321 c 3.65588,-0.87675 10.00526,-0.87784 13.67161,-0.003 1.47743,0.35279 2.86887,0.64144 3.09208,0.64144 0.22319,0 -0.35157,-0.68151 -1.27727,-1.51446 -2.38123,-2.14266 -16.08845,-19.39029 -21.3309,-26.84039 -2.42159,-3.44134 -4.56123,-6.20576 -4.75475,-6.14314 -0.19351,0.0626 -1.83488,1.03707 -3.64749,2.16542 l -3.29563,2.05155 1.95169,6.70283 c 1.07342,3.68654 3.26602,10.94806 4.87244,16.13674 1.60643,5.18868 2.92078,9.50633 2.92078,9.59478 0,0.0885 1.19367,-0.36916 2.65259,-1.01694 1.45893,-0.64775 3.77411,-1.44673 5.14485,-1.77543 z m 63.55255,0.53894 c 1.62339,-2.98233 2.53201,-10.02678 2.59163,-20.09269 0.0333,-5.62339 -0.063,-6.99154 -0.72097,-10.24062 -1.44464,-7.13414 -4.11189,-15.1612 -7.57237,-22.78901 -2.70165,-5.95517 -3.17559,-6.74263 -4.97874,-8.27216 -3.32471,-2.82022 -14.3058,-9.63375 -15.0952,-9.36623 -0.23755,0.0804 -0.7761,0.9017 -1.19681,1.82491 -0.72363,1.58796 -0.7647,2.0288 -0.761,8.16907 0.003,6.32427 0.16655,7.93344 1.50967,14.92825 l 0.34619,1.80292 2.92837,0 c 2.63662,0 2.9113,-0.0503 2.75669,-0.50482 -0.44987,-1.32265 -0.90396,-7.08614 -0.71022,-9.01464 0.28537,-2.84074 0.76532,-4.19738 1.8465,-5.21948 0.74598,-0.70522 1.14137,-0.83835 2.48995,-0.83835 0.8817,0 1.84453,0.16226 2.13956,0.36058 0.564,0.37912 2.50677,4.82813 4.75524,10.88968 4.23632,11.4205 6.275,19.91537 6.29018,26.21053 0.009,3.72699 -0.1027,4.39121 -1.08601,6.45852 -0.59709,1.25533 -0.74539,1.37023 -1.76881,1.37023 -2.47276,0 -5.61328,-3.83571 -8.0924,-9.88374 -1.11704,-2.72511 -3.77636,-11.62502 -3.77636,-12.63829 0,-0.53525 -0.0323,-0.53479 -1.38829,0.0193 -0.76356,0.31198 -2.01303,0.70472 -2.77658,0.87276 -0.76356,0.16803 -1.38695,0.46276 -1.38531,0.65496 0.008,0.92328 1.71017,6.80713 2.93878,10.15741 3.3538,9.14522 7.79414,16.64058 13.02304,21.98299 2.52725,2.58211 5.78023,5.01849 6.41385,4.80375 0.25864,-0.0876 0.83441,-0.82828 1.27942,-1.64586 z M 438.6186,425.35942 c 5.4094,-14.75089 4.02242,-33.88341 -3.7757,-52.08273 -1.85858,-4.33761 -5.0103,-10.58702 -5.33924,-10.58702 -0.13383,0 -1.15375,2.24001 -2.26645,4.9778 l -2.02312,4.97782 0.86731,1.72907 c 4.25664,8.48625 8.07415,18.37873 9.79547,25.3835 0.42887,1.74523 1.02393,3.952 1.32237,4.90396 0.89592,2.85787 0.006,5.86629 -2.70968,9.15886 -0.62928,0.76297 -1.39231,1.37023 -1.72178,1.37023 -0.72527,0 -2.37081,-1.61265 -3.31966,-3.25329 -1.35186,-2.33755 -3.9987,-9.50278 -4.74414,-12.84287 -0.54639,-2.44827 -0.65565,-2.66602 -1.25194,-2.49534 -0.35932,0.10285 -1.3306,0.32577 -2.15842,0.4953 l -1.50507,0.30826 0.74168,3.0925 c 2.14567,8.94681 5.65708,17.56731 9.08109,22.29415 1.57512,2.17442 3.82503,4.1341 5.53208,4.81847 2.26533,0.90818 2.33373,0.86393 3.4752,-2.24867 z m -27.23909,-2.40407 c 0.94437,-1.656 1.38886,-3.32889 3.41138,-12.83927 1.27902,-6.01433 3.11766,-14.44006 4.0858,-18.72381 0.96814,-4.28375 1.9228,-9.08676 2.12147,-10.67333 2.14796,-17.15244 10.11503,-34.49895 22.49112,-48.96949 5.84226,-6.83096 7.13635,-7.95455 12.47573,-10.83196 8.64101,-4.65675 8.09775,-4.30643 7.16774,-4.62202 -0.44469,-0.15089 -7.27632,-2.556 -15.18143,-5.34465 l -14.37291,-5.07029 -15.84287,-3.57568 -15.84286,-3.57568 -18.94612,-0.91967 -18.9461,-0.91967 -3.1849,-1.0313 c -1.75171,-0.56724 -3.18491,-1.18186 -3.18491,-1.36581 0,-0.35724 12.015,-1.34966 16.00619,-1.32208 1.1678,0.008 8.22359,0.45861 15.67954,1.00118 l 13.55627,0.98651 12.41296,2.57689 c 12.3057,2.55462 12.48918,2.60354 21.23271,5.66015 4.85086,1.69579 11.03278,3.85417 13.73763,4.79637 5.0512,1.75956 16.8427,7.15324 25.13907,11.49915 15.16812,7.9456 16.46583,8.72908 29.49997,17.81053 6.94885,4.8416 13.04884,9.14696 13.55555,9.56752 0.50668,0.42052 2.40658,2.54844 4.22201,4.72868 1.8154,2.18024 3.34043,3.929 3.38898,3.88613 0.0485,-0.0428 -0.0633,-1.89157 -0.24853,-4.10831 -0.48267,-5.77709 -2.32475,-12.06046 -8.3277,-28.40594 -4.07145,-11.08627 -5.32006,-14.14282 -6.54016,-16.00999 -0.82939,-1.26926 -4.21662,-6.42589 -7.52723,-11.45918 l -6.01928,-9.15145 -5.00781,-4.69502 c -2.75434,-2.58229 -7.90729,-7.87542 -11.45102,-11.76253 -3.54372,-3.88711 -6.53893,-7.16093 -6.656,-7.27514 -0.23664,-0.2308 -2.41726,-0.45063 -25.10275,-2.53052 l -15.7564,-1.44461 -12.27847,0 -12.2785,0 -17.97204,2.59622 c -9.88465,1.42791 -18.30819,2.59621 -18.71898,2.59621 -0.59413,0 -0.81256,-0.22827 -1.06765,-1.11581 l -0.32075,-1.1158 14.38406,-2.82036 14.38404,-2.82036 14.5611,-0.1281 14.56109,-0.12812 21.39604,1.90497 c 18.31278,1.63046 22.64681,2.1081 30.07578,3.31463 4.77382,0.7753 9.69818,1.49887 10.94301,1.60792 1.24478,0.10904 4.17421,0.57495 6.50982,1.03534 2.33559,0.46039 7.48044,1.36341 11.43299,2.00671 22.17714,3.60943 41.07008,7.83388 48.47869,10.83981 1.33103,0.54004 2.49014,0.91998 2.57586,0.84432 0.0856,-0.0757 -0.35825,-1.75819 -0.98648,-3.73887 -1.09874,-3.46403 -1.37747,-3.96124 -7.31238,-13.04451 l -6.17009,-9.44321 -6.04283,-5.4986 c -4.38316,-3.98837 -8.59991,-7.40229 -15.35289,-12.42975 l -9.31005,-6.93117 -11.26967,-5.77537 c -13.61618,-6.97787 -14.44432,-7.26214 -29.26024,-10.0438 l -10.15084,-1.9058 -14.02179,8.7e-4 c -11.26757,8.7e-4 -14.59928,0.0898 -16.96173,0.45354 -3.49212,0.53764 -24.18317,5.21281 -25.21994,5.69848 -0.39637,0.18569 -4.87974,2.84889 -9.96305,5.91824 l -9.24237,5.58064 -7.3564,6.46648 -7.35646,6.46647 -1.55387,-0.18809 c -0.85466,-0.10339 -1.61764,-0.27916 -1.69555,-0.39047 -0.0779,-0.11132 3.03899,-3.37091 6.92644,-7.24354 7.05687,-7.02998 7.07592,-7.04591 11.99188,-10.04763 2.70808,-1.65357 12.76568,-7.79302 22.35023,-13.64321 l 17.4264,-10.63672 8.70616,-3.83983 c 4.78836,-2.1119 15.68842,-6.57289 24.22234,-9.9133 14.98693,-5.8663 15.91907,-6.18745 27.32604,-9.41482 8.43513,-2.38656 14.64246,-3.93344 21.72269,-5.41338 l 9.91286,-2.07201 8.1352,-0.16542 8.13524,-0.16543 -1.92875,-1.18862 c -4.16488,-2.56672 -22.19112,-10.97313 -28.71459,-13.39083 -1.79662,-0.66586 -4.16478,-1.57209 -5.26261,-2.01383 -8.1969,-3.2983 -22.70293,-6.11502 -39.9794,-7.76305 -16.86762,-1.60901 -21.54322,-1.72466 -29.27007,-0.72396 -14.89591,1.92916 -31.11036,8.37362 -46.28535,18.39618 -8.08851,5.3422 -15.43023,11.24904 -16.67669,13.41741 -0.42488,0.7391 -4.30785,6.31258 -8.62884,12.3855 l -7.85629,11.0417 -3.49363,7.70875 c -3.75895,8.29425 -8.87746,21.12328 -11.60645,29.09039 -0.93049,2.71642 -1.81465,5.11451 -1.96485,5.32911 -0.21716,0.31032 -0.43409,0.25653 -1.06019,-0.26288 l -0.78715,-0.65305 1.38735,-4.24336 c 0.76307,-2.33384 1.27265,-4.35244 1.13241,-4.48578 -0.14023,-0.13334 -2.49177,-0.037 -5.22562,0.21425 -2.7339,0.25118 -5.09441,0.38916 -5.24563,0.30664 -0.43155,-0.23553 -4.43048,0.38847 -7.65811,1.19499 -5.71362,1.42772 -15.93947,5.08029 -25.54495,9.1244 l -3.00561,1.26542 5.36691,5.96658 5.36691,5.9666 -0.51915,2.23671 c -0.28554,1.23021 -0.56051,2.2768 -0.61106,2.32577 -0.0505,0.0489 -0.62868,-0.6913 -1.28474,-1.64504 -2.83116,-4.11573 -19.36843,-22.37083 -24.84164,-27.42208 -1.98471,-1.83166 -4.10631,-4.04428 -4.71467,-4.91689 -1.71846,-2.46498 -11.3845,-10.31972 -22.89318,-18.60327 -5.65933,-4.0734 -11.09818,-8.14892 -12.08632,-9.05672 -2.07237,-1.9039 -5.18432,-3.81373 -10.31342,-6.32942 -4.68081,-2.29582 -14.89903,-6.65194 -16.10194,-6.86439 -2.41855,-0.42717 -5.34411,2.43387 -7.41379,7.25026 -2.65551,6.17967 -3.60626,10.40733 -5.87042,26.10336 l -1.85171,12.83684 0.22507,18.89467 c 0.25777,21.63926 0.29088,22.69008 0.81346,25.81793 0.21205,1.26925 0.44451,2.76208 0.51659,3.31737 0.072,0.55531 0.34102,2.24285 0.59767,3.75009 0.25665,1.50725 0.86166,6.05063 1.34446,10.0964 0.73461,6.1558 1.56877,10.57133 5.11267,27.06367 2.32916,10.83922 4.18925,19.91605 4.13353,20.17069 -0.20856,0.95309 -2.15064,-1.30732 -3.21264,-3.73922 -1.99793,-4.57513 -4.53909,-15.31542 -5.90578,-24.96104 -0.22387,-1.57995 -0.52721,-2.66751 -0.74368,-2.66627 -0.20107,0 -1.65603,2.75961 -3.23323,6.12996 -2.72419,5.82129 -3.04765,6.75376 -6.4651,18.63826 -3.48835,12.13095 -3.66741,12.90959 -5.90417,25.67368 -1.26869,7.23981 -2.31863,13.87726 -2.3332,14.74988 -0.0146,0.87261 0.80907,6.779 1.83033,13.12531 2.1709,13.49039 4.20652,22.13983 7.18063,30.51066 1.98106,5.57586 2.04414,5.69927 2.84266,5.56075 0.44915,-0.078 9.1954,-1.19282 19.43609,-2.47754 l 18.61945,-2.33588 8.16643,-3.13138 c 4.49154,-1.72227 8.95489,-3.40456 9.91856,-3.7384 0.96367,-0.33387 2.43363,-1.01515 3.26657,-1.51395 1.8975,-1.1363 13.51563,-8.33944 13.8412,-8.58143 0.13226,-0.0983 0.001,-0.92045 -0.2905,-1.82699 l -0.53097,-1.64829 -3.74326,0 -3.74327,0 0.23473,3.31739 c 0.1543,2.18083 0.12153,3.31739 -0.0957,3.31739 -0.30693,0 -1.13967,-2.74716 -1.59504,-5.26192 l -0.19636,-1.08438 -3.79647,-2.3e-4 c -15.43588,0 -33.3095,-4.15697 -50.47761,-11.73711 -2.35254,-1.03872 -5.28034,-2.40382 -6.5062,-3.03357 l -2.22885,-1.14496 0.22086,-1.20095 c 0.12147,-0.66051 0.34826,-1.32029 0.50396,-1.46617 0.16928,-0.15863 2.35521,0.46377 5.43787,1.54835 11.36534,3.99873 22.43358,7.31819 28.8989,8.66707 1.92867,0.40235 6.37711,0.82028 13.88293,1.30431 6.07468,0.39171 11.28017,0.71329 11.56774,0.71459 0.46578,0.003 0.54207,-1.07028 0.69872,-9.82163 0.0967,-5.40318 0.26567,-9.90328 0.37545,-10.00024 0.10973,-0.0969 0.29311,-0.0936 0.40743,0.008 0.11432,0.10089 0.50814,4.43878 0.87516,9.63963 0.36702,5.20086 0.68341,9.48276 0.70309,9.51533 0.0597,0.0988 6.42198,-0.72103 6.56326,-0.84579 0.0724,-0.0638 -0.14732,-1.40585 -0.48812,-2.98215 -1.04372,-4.82755 -1.42674,-9.07741 -1.24053,-13.76453 0.28592,-7.19738 1.56133,-10.31497 6.04444,-14.7752 3.94091,-3.92081 7.2187,-5.72128 12.4111,-6.81735 2.46001,-0.5193 3.58418,-0.58507 8.16253,-0.47759 l 5.30962,0.12465 5.30674,2.32647 c 5.17067,2.26681 5.59822,2.52716 16.67379,10.15373 15.01125,10.33669 30.82757,22.0228 41.92727,30.9786 l 9.01057,7.27021 21.92931,12.85804 21.92933,12.85807 1.91392,-0.45148 c 1.89053,-0.44595 1.92715,-0.4747 2.99972,-2.3556 z M 231.71373,306.39856 c -0.25713,-0.62537 -4.32367,-15.51178 -5.37631,-19.68104 -0.52618,-2.08416 -1.11696,-5.08747 -1.31283,-6.67404 -0.98547,-7.98226 -3.26134,-40.78689 -3.29211,-47.45304 -0.007,-1.34859 0.3949,-8.06629 0.89137,-14.92824 l 0.90269,-12.47626 2.08583,0 c 1.72652,0 2.57786,0.19566 4.94225,1.13582 4.75123,1.88926 8.10507,4.25659 21.44309,15.13577 12.68379,10.34556 12.70783,10.36737 20.0488,18.19304 11.93805,12.72624 11.10634,11.75052 11.10634,13.02943 0,1.04392 -0.18167,1.27024 -2.36826,2.95043 -5.78674,4.44653 -19.56667,16.34485 -22.42727,19.36486 -5.78529,6.10768 -13.04871,14.72403 -21.97369,26.0666 -2.56721,3.26264 -4.5779,5.5604 -4.6699,5.33667 z m 5.86722,-11.88458 c 2.15415,-2.88174 6.28768,-8.03044 9.18563,-11.44158 11.54121,-13.58503 21.02861,-22.59262 30.01646,-28.49845 1.79661,-1.18053 3.30779,-2.29712 3.35817,-2.48128 0.12733,-0.46537 -4.6075,-5.61891 -9.43671,-10.27124 -5.18393,-4.99406 -17.66266,-16.01093 -27.13653,-23.95754 l -7.40916,-6.21475 -4.84047,-1.9153 -4.84049,-1.91529 -0.27037,1.06356 c -0.14869,0.58496 -0.34307,7.68391 -0.43192,15.77545 l -0.16157,14.71188 1.97349,19.47162 c 1.68527,16.62786 2.24708,21.04094 3.84679,30.21706 1.03032,5.90999 1.95356,10.73416 2.05167,10.72041 0.0981,-0.0138 1.94086,-2.38281 4.09501,-5.26455 z m 95.64068,122.6206 c -0.12868,-4.95733 -3.30349,-21.2617 -5.03519,-25.85814 -1.55773,-4.13475 -4.97934,-8.68246 -6.53249,-8.68246 -1.49851,0 -2.23218,4.36741 -1.62342,9.6637 0.35619,3.09875 0.39123,3.19342 1.49501,4.03855 1.43787,1.10091 1.73134,2.15301 1.00006,3.58514 -0.54816,1.07348 -0.5382,1.17862 0.45673,4.81399 2.07548,7.5838 4.27882,12.22841 6.75857,14.24693 1.17953,0.96015 1.65899,1.17017 2.50617,1.09783 l 1.04763,-0.0895 -0.073,-2.81605 z m 100.42261,-7.12442 c 2.13825,-1.15136 2.68426,-3.49944 1.89872,-8.16524 -0.54314,-3.22586 -2.3192,-9.14451 -4.08884,-13.6258 -1.90172,-4.81581 -6.29922,-14.3121 -6.51931,-14.07839 -0.28864,0.30648 -4.02661,14.5243 -3.85776,14.67341 0.0719,0.0635 1.22363,0.30165 2.55946,0.52931 4.28878,0.73086 5.53204,1.38831 5.53204,2.92536 0,0.72261 -0.29684,1.16818 -1.32418,1.9878 -0.72828,0.58106 -1.68376,1.20116 -2.12327,1.37799 -0.99213,0.39921 -1.0115,1.00788 -0.13575,4.26749 1.84361,6.86228 4.10267,10.67572 6.32218,10.67226 0.37999,0 1.16153,-0.25449 1.73671,-0.56419 z m 71.85304,-8.0888 c 4.78566,-4.96191 4.9566,-5.18715 10.00204,-13.18009 2.82327,-4.47253 5.12757,-8.23703 5.12075,-8.36557 -0.007,-0.12855 -1.22722,-1.59671 -2.71194,-3.26262 l -2.69947,-3.02892 -2.59626,-0.18547 c -2.96716,-0.212 -7.33917,-1.03079 -12.05744,-2.25814 -1.79008,-0.46564 -3.28068,-0.82028 -3.3124,-0.78809 -0.0317,0.0322 -0.96161,6.15966 -2.06637,13.61657 -1.10479,7.45691 -2.07587,13.88253 -2.15799,14.27918 -0.12132,0.586 0.53117,1.44003 3.48098,4.55619 1.99666,2.10925 3.74255,3.79679 3.87974,3.75008 0.1372,-0.0468 2.44046,-2.35661 5.11836,-5.13312 z m 23.30166,-26.25471 c 1.16779,-0.61303 2.52751,-1.20147 3.02158,-1.30769 0.72932,-0.15678 0.8983,-0.35433 0.8983,-1.05017 0,-0.78108 -0.0796,-0.84299 -0.8983,-0.69843 -0.84601,0.14939 -9.90686,0.94964 -12.58031,1.11112 l -1.22896,0.0743 2.3552,2.90966 2.3552,2.90966 1.97703,-1.41693 c 1.08734,-0.77929 2.93246,-1.91845 4.10026,-2.53145 z M 175.32847,362.77581 c 0.24528,-2.48623 1.50974,-8.89381 3.64251,-18.45823 3.07417,-13.78607 3.46698,-15.24137 6.66077,-24.67743 l 3.39395,-10.02739 2.47096,-2.95744 c 1.35904,-1.62658 2.47903,-3.15214 2.48888,-3.39013 0.0445,-1.07597 -3.44283,-25.96216 -3.63815,-25.96216 -0.12086,0 -1.71161,2.06244 -3.53499,4.58319 l -3.31526,4.58316 -3.40067,10.89031 -3.40068,10.89029 -0.84951,7.53187 c -0.46723,4.14253 -1.37294,11.68583 -2.01268,16.76288 -1.09116,8.65953 -1.15191,9.62384 -0.98132,15.57728 0.16587,5.78908 0.53511,9.58982 1.57674,16.23018 0.20565,1.31103 0.40763,2.34952 0.44883,2.30775 0.0412,-0.0417 0.24398,-1.78962 0.45062,-3.88413 z m 357.50782,-0.0141 c 0.45216,-6.30711 0.62496,-13.70403 0.31761,-13.5962 -0.17297,0.0607 -1.2934,0.56438 -2.48988,1.11936 -2.46982,1.14563 -2.38483,0.97714 -2.69234,5.33725 -0.11188,1.58658 -0.27762,3.11799 -0.36834,3.40317 -0.13141,0.4133 -0.84225,-0.0576 -3.50366,-2.32139 l -3.33876,-2.83985 -9.71096,0.76799 c -5.341,0.42237 -9.78122,0.83007 -9.86713,0.90593 -0.16326,0.14418 0.3018,0.71321 5.31488,6.50257 l 3.05986,3.53373 11.53854,0 11.53856,0 0.20162,-2.81256 z m -16.21346,-12.3774 c 0.17496,-0.4709 -3.41186,-3.78089 -6.91259,-6.37913 -3.28884,-2.44096 -14.58699,-9.94362 -14.7531,-9.79693 -0.0582,0.0514 0.37955,1.83999 0.97279,3.97465 0.59321,2.13467 1.42454,5.38813 1.84741,7.22994 l 0.76885,3.34875 5.43792,0.78752 c 8.81729,1.2769 12.38696,1.51282 12.63872,0.8352 z m 17.57621,-8.31262 c -0.55175,-3.67405 -4.64379,-16.25456 -9.71171,-29.85743 l -2.63057,-7.06083 -10.11882,-14.57429 c -7.56541,-10.89657 -11.30061,-15.9688 -14.80198,-20.10056 -3.70935,-4.37712 -4.87405,-5.56142 -5.60119,-5.69535 -2.04914,-0.37739 -9.231,-1.30552 -11.37105,-1.46951 -1.25764,-0.0963 -2.64339,-0.24173 -3.07944,-0.32302 l -0.79285,-0.1478 0.79285,0.86556 c 0.43605,0.47606 5.43289,5.12503 11.10413,10.33105 5.67118,5.20605 10.84184,10.19933 11.49028,11.0962 0.64848,0.89688 4.24949,6.28402 8.00226,11.97144 5.9929,9.08246 7.03465,10.84973 8.56102,14.52355 0.95583,2.30052 3.17524,7.62277 4.93203,11.82719 2.89186,6.92102 3.35379,8.31324 4.88101,14.71189 0.92777,3.88711 1.74127,7.2221 1.80778,7.41107 0.0813,0.23107 1.20655,-0.0523 3.4363,-0.8654 l 3.31541,-1.20901 -0.21546,-1.43475 z M 137.0128,293.1486 C 129.10656,280.06382 127.65985,277.88 119.44489,266.62971 109.58625,253.12839 101.91361,243.78654 87.776226,228.07144 77.84274,217.0294 70.323989,209.40881 61.35463,201.29201 c -6.293268,-5.69508 -8.910456,-7.6886 -12.966286,-9.87643 l -1.6947,-0.91418 -1.035474,1.04146 c -0.96367,0.96924 -1.020353,1.14332 -0.817498,2.51043 0.398294,2.6841 2.521532,7.64025 5.548355,12.95118 6.261097,10.98588 16.041931,26.96549 22.28194,36.40353 5.61697,8.4957 7.676388,11.27969 15.392686,20.80829 9.419919,11.63238 13.031077,15.5524 26.671627,28.95294 4.11797,4.04554 9.55682,9.55155 12.08631,12.23559 4.11351,4.36486 5.15086,5.26922 9.82558,8.56574 l 5.2265,3.68567 1.87744,-5.12431 1.87744,-5.12432 -8.61575,-14.259 z m 13.19749,4.15804 c 0.77032,-1.23949 2.96743,-5.76054 4.88247,-10.04683 l 3.48189,-7.79326 7.23174,-9.51946 7.23175,-9.51946 7.46499,-6.84427 7.46499,-6.84426 0.49985,-5.99258 c 0.42127,-5.05061 0.43429,-6.53668 0.0827,-9.45418 -0.22939,-1.9039 -0.42564,-3.63009 -0.43607,-3.83598 -0.01,-0.2059 -0.36167,-0.66025 -0.78047,-1.00965 -0.41881,-0.3494 -4.70471,-5.24356 -9.52419,-10.8759 -7.01587,-8.19915 -10.53928,-11.99458 -17.67441,-19.03892 -12.65025,-12.48925 -15.99665,-15.20336 -30.8382,-25.01131 -12.15194,-8.03055 -12.3396,-8.14021 -23.5293,-13.75068 l -11.279674,-5.65558 -8.928979,-2.47015 c -4.910952,-1.35858 -8.965121,-2.43099 -9.009269,-2.38314 -0.04416,0.0478 -4.194319,5.14964 -9.222584,11.33727 l -9.142305,11.25027 -5.128015,9.49155 c -2.820411,5.22036 -5.010902,9.58162 -4.867752,9.69169 0.14314,0.11008 2.303388,1.42074 4.800543,2.9126 l 4.540302,2.71244 15.862572,15.43306 c 20.08148,19.53773 19.441579,18.79969 45.527971,52.51089 12.57089,16.24525 13.3838,17.4447 26.73231,39.44318 l 1.44699,2.38466 0.85476,-2.43421 c 0.47012,-1.33881 1.48502,-3.44832 2.25534,-4.68779 z m 143.23225,-60.67465 c 18.25135,-6.88751 34.80521,-11.1527 42.43709,-10.93414 l 2.25831,0.0647 4.30067,-9.78347 c 2.36539,-5.38091 4.54825,-10.29019 4.85079,-10.90952 0.30255,-0.61933 0.46235,-1.20348 0.35508,-1.29811 -0.10728,-0.0946 -2.64488,-0.16559 -5.63911,-0.15769 -5.81871,0.0153 -9.57879,0.46655 -18.18372,2.18188 -12.27551,2.44705 -31.67203,7.85119 -50.21097,13.98948 l -5.1323,1.69931 9.86883,8.54833 9.86883,8.54833 0.97996,-0.35818 c 0.53899,-0.197 2.44993,-0.91291 4.24654,-1.5909 z M 192.34729,210.9683 c 1.44894,-7.21177 3.2165,-15.15684 3.92793,-17.65571 1.95137,-6.85422 2.26582,-5.90239 -4.16028,-12.59318 -11.50787,-11.9819 -18.67752,-18.91103 -25.31634,-24.4671 -2.69497,-2.25543 -6.22192,-4.75676 -7.20188,-5.10762 -0.93386,-0.33435 0.66374,-0.75891 2.85635,-0.75905 3.2588,-2.2e-4 6.05186,0.65732 9.79972,2.30702 4.6765,2.05845 8.76588,4.75972 14.02482,9.26415 4.00492,3.43035 5.41217,4.91578 10.96444,11.57358 l 6.36982,7.63815 1.95993,0.17906 c 7.29523,0.6665 7.2403,0.64827 16.77369,5.56607 4.74362,2.44699 8.69249,4.38927 8.77527,4.31617 0.0827,-0.0731 -2.69197,-3.22037 -6.16609,-6.99393 -6.51683,-7.07853 -21.30737,-21.25243 -27.01375,-25.88751 -6.35535,-5.16223 -25.06917,-16.90614 -26.96637,-16.92283 -0.55459,-0.004 -2.34424,-0.50018 -3.97698,-1.10067 l -2.96861,-1.09181 -13.85423,0.51082 c -10.37152,0.38241 -18.32952,0.87808 -31.65703,1.97177 -9.79154,0.80353 -21.992189,1.78938 -27.112542,2.19079 -5.863683,0.45967 -9.717662,0.88925 -10.411803,1.16053 -0.606145,0.23691 -1.047127,0.47331 -0.979973,0.52538 0.06713,0.0521 3.429511,0.96539 7.471893,2.02963 l 7.349785,1.93501 10.37104,5.01804 c 8.2739,4.00335 12.07201,6.05293 18.78279,10.13585 10.63615,6.47116 16.29957,10.63981 27.42796,20.18877 7.59516,6.5172 10.05047,8.85448 16.85914,16.0486 6.6206,6.99543 13.336,14.71552 19.82784,22.79427 0.95049,1.18283 1.15608,1.31326 1.36409,0.8654 0.13471,-0.29003 1.43043,-6.42787 2.87937,-13.63965 z m 323.42862,11.44466 c 0.59226,-0.79789 11.95176,-9.1499 12.44468,-9.1499 0.16049,0 1.56443,-1.12849 8.72782,-7.01546 2.51498,-2.06684 11.20637,-7.97649 13.64961,-9.28097 0.042,-0.0224 0.81915,-2.95281 1.72696,-6.51195 0.90785,-3.55914 2.08016,-7.9303 2.60519,-9.7137 0.77504,-2.63254 1.02114,-4.28773 1.30823,-8.79829 0.5206,-8.17861 -0.0863,-12.4085 -4.68736,-32.67176 -2.97842,-13.11694 -3.2033,-13.91463 -6.9121,-24.51981 l -3.83348,-10.9618 -5.59496,-9.590421 c -3.07721,-5.274724 -6.20054,-10.667584 -6.94071,-11.984137 -0.93133,-1.656536 -4.81995,-6.487589 -12.6269,-15.687106 -6.20462,-7.311372 -11.57381,-13.474449 -11.93157,-13.695719 -0.35772,-0.221281 -1.65426,-1.500292 -2.88118,-2.842253 C 497.79967,46.675057 492.4084,41.781326 488.4568,38.758258 479.20312,31.678949 470.41787,26.638837 457.75104,21.142242 444.45286,15.371701 430.21208,11.00007 420.18547,9.6103659 l -2.61325,-0.3622015 -18.99707,4.6392916 c -10.44836,2.55161 -21.91261,5.389224 -25.47608,6.305809 l -6.47902,1.666516 1.63012,0.229079 c 12.11359,1.702315 19.04679,3.543776 28.49736,7.568896 10.28771,4.381672 18.46534,9.413479 27.06982,16.656367 3.16093,2.660754 6.95312,5.118198 7.89811,5.118198 0.18599,0 5.27766,4.300459 11.31481,9.556581 10.06786,8.765359 11.63196,10.264455 18.89185,18.106465 16.94151,18.299924 14.12158,14.639737 24.37126,31.632983 l 9.04644,14.99838 3.95151,9.22408 c 2.1733,5.07324 4.21119,9.87314 4.5286,10.66642 l 0.57711,1.44235 8.66582,3.75009 c 14.26123,6.17147 22.70423,10.51864 26.58208,13.68666 0.95168,0.77748 2.09779,1.67396 2.54695,1.99221 0.54065,0.38307 0.70624,0.67412 0.48999,0.86115 -0.41708,0.36073 -8.07073,1.47321 -20.80604,3.02425 -5.51453,0.67162 -10.10465,1.29024 -10.2003,1.37471 -0.0957,0.0845 0.10583,0.80386 0.44786,1.59862 1.40116,3.25651 2.40262,10.42707 2.95597,21.16535 l 0.34933,6.779 -1.21989,10.4942 -1.21991,10.49421 0.75474,0.53971 c 1.02077,0.72994 1.21775,0.69051 2.03227,-0.40678 z M 274.8729,217.89892 c 21.00681,-8.75777 39.00685,-14.09128 52.07338,-15.42966 2.234,-0.22882 8.20846,-0.50892 13.27658,-0.62245 l 9.21477,-0.20641 0.37036,-1.57545 c 0.21618,-0.91967 0.24944,-1.68225 0.0798,-1.83201 -0.78453,-0.69283 -4.59306,-0.95863 -13.81655,-0.96427 -7.37068,-0.004 -10.48121,0.1072 -13.22961,0.47524 -1.97627,0.26464 -4.84269,0.5635 -6.36981,0.66417 -1.52711,0.10068 -3.07057,0.29946 -3.42989,0.44179 -0.35932,0.14234 -4.1812,0.38571 -8.49308,0.54086 -7.20486,0.25921 -8.22833,0.36364 -12.63762,1.28936 -9.4426,1.98244 -27.28083,6.74407 -32.13171,8.57705 -3.93143,1.48554 -3.92452,1.50596 2.36786,6.99118 2.83941,2.4752 5.31836,4.50362 5.50878,4.50764 0.19041,0.004 3.43793,-1.28167 7.2167,-2.85704 z m 236.73571,-0.5235 c 1.8722,-9.13382 1.45735,-23.32112 -1.08518,-37.11052 -0.72604,-3.93766 -1.50665,-7.35648 -1.72342,-7.5479 -0.12834,-0.11334 -3.36446,0.33283 -4.40927,0.60791 -0.28926,0.0762 -0.18724,0.60389 0.37117,1.9202 1.53523,3.61868 1.97409,6.10098 1.97847,11.19039 0.007,7.98781 -1.96118,15.14731 -6.68089,24.30423 l -1.89612,3.67875 6.23961,2.86369 c 3.43183,1.57503 6.34052,2.80865 6.46376,2.74136 0.12328,-0.0673 0.45712,-1.25892 0.74187,-2.64811 z m -13.4583,-6.58473 c 4.66499,-7.82925 6.86469,-17.92856 6.14148,-28.19691 -0.3083,-4.37759 -0.92284,-8.50148 -1.29728,-8.70586 -0.13684,-0.0747 -2.28785,0.25738 -4.78002,0.73791 -3.23501,0.62375 -8.22211,2.03669 -17.43414,4.93942 -12.55647,3.95658 -13.27138,4.22397 -26.62255,9.95704 -16.63748,7.14424 -29.20477,13.30934 -37.20774,18.25291 -4.09722,2.53091 -5.6539,3.63856 -5.19829,3.69882 0.35773,0.0473 4.1656,-0.77002 8.46193,-1.81626 7.47446,-1.82017 8.2344,-1.9462 17.61125,-2.92075 6.59112,-0.68502 10.65533,-0.97691 12.41297,-0.89145 l 2.61326,0.12704 3.73878,-3.06165 c 2.05634,-1.68392 8.37216,-6.87956 14.03519,-11.54585 11.0948,-9.14208 12.94129,-10.48417 16.51002,-11.99999 8.20021,-3.48304 12.13613,0.51984 10.99041,11.17741 -0.23127,2.15139 -1.27204,7.15526 -2.65627,12.771 -1.25179,5.07848 -2.27599,9.38081 -2.27599,9.56071 0,0.34831 2.23564,1.27519 2.76417,1.14602 0.17287,-0.0422 1.15964,-1.49554 2.19282,-3.22956 z m -4.84877,-2.21524 c 1.62234,-7.55553 2.24613,-12.43566 2.29539,-17.95715 0.0382,-4.28919 -0.0572,-5.48839 -0.54849,-6.89377 -0.70695,-2.02209 -2.04843,-3.34687 -3.38904,-3.34687 -2.89267,0 -12.90543,7.23482 -28.03615,20.25775 -3.51062,3.02158 -6.32653,5.54361 -6.25757,5.6045 0.069,0.0609 7.31316,1.32664 16.09824,2.81275 8.78505,1.48611 16.48733,2.90652 17.11615,3.15646 0.62881,0.24993 1.29979,0.4595 1.49105,0.46572 0.19129,0.007 0.74498,-1.83852 1.23042,-4.09939 z m -235.68085,-0.40602 c 0.41202,-0.0556 1.95218,-0.53855 3.4226,-1.07338 7.51997,-2.73524 31.8264,-9.11773 36.05706,-9.46803 l 1.04455,-0.0865 -12.73537,-15.00035 c -12.16411,-14.3275 -12.9862,-15.22252 -18.32765,-19.95326 l -5.59229,-4.95289 0.29694,-1.2281 0.29694,-1.22809 16.65951,-9.11795 c 9.16273,-5.01488 17.68848,-9.76697 18.94612,-10.56021 1.81605,-1.14546 40.88209,-19.8299 44.31038,-21.19269 1.73935,-0.69144 14.03816,1.52394 19.39671,3.49392 2.77835,1.0214 6.03208,2.83542 6.9656,3.88345 0.33828,0.3798 1.36372,1.21313 2.27876,1.85187 2.56618,1.7913 11.81217,9.84579 15.38936,13.40615 4.22372,4.20385 7.59021,8.18668 9.0896,10.75366 l 1.21484,2.07981 2.61583,-1.24747 c 1.4387,-0.68612 6.51181,-2.48717 11.27353,-4.00235 10.83551,-3.44782 17.02118,-4.67609 29.39785,-5.83742 4.58137,-0.42987 8.3814,-0.82343 8.44451,-0.87456 0.0631,-0.0511 -1.60544,-2.92023 -3.70792,-6.37577 -3.59178,-5.9034 -4.45759,-7.0499 -14.33746,-18.98567 -5.78317,-6.98656 -11.00775,-13.314745 -11.61021,-14.062608 -0.60242,-0.747863 -2.58095,-2.499215 -4.3967,-3.891894 -1.81576,-1.392669 -3.58856,-2.857746 -3.93955,-3.255732 -1.43837,-1.630835 -6.08389,-5.68741 -8.89821,-7.770145 -9.91375,-7.336584 -26.13086,-15.651619 -42.15211,-21.612702 l -2.36327,-0.879308 -4.62922,2.019938 c -3.28149,1.431885 -5.49401,2.192794 -7.59974,2.613666 -1.94936,0.389615 -4.60953,1.271064 -7.73818,2.564078 -7.95547,3.287838 -38.66858,15.640095 -44.0676,17.723168 -2.78474,1.074429 -14.10341,5.879759 -25.15258,10.678521 -11.04918,4.798748 -23.23886,10.051328 -27.08816,11.672378 -3.84932,1.62106 -9.14116,4.01935 -11.75965,5.32953 -2.61851,1.31019 -15.78559,7.73556 -29.26019,14.27861 -13.47461,6.54305 -24.61479,11.9928 -24.75596,12.11058 -0.14118,0.11777 3.67335,2.47469 8.47672,5.23758 9.29883,5.34868 9.4645,5.46847 20.38679,14.7395 6.19338,5.25705 16.57197,14.81411 21.7151,19.99619 4.07646,4.10735 10.49823,11.23507 11.9553,13.26954 0.91495,1.27753 3.61528,3.64528 10.31084,9.04094 7.99294,6.44117 9.09181,7.23314 9.24435,6.66254 0.10482,-0.39213 0.46865,-0.68742 0.92223,-0.74856 z m 52.52902,-9.80685 2.00761,-0.17339 -0.4923,-1.33347 c -0.66788,-1.80903 -7.10605,-10.29233 -11.30148,-14.89147 -8.61448,-9.44341 -19.6484,-18.57776 -30.09664,-24.91531 -3.90587,-2.36916 -3.71104,-2.35278 -6.18133,-0.51968 l -1.26448,0.93832 6.19328,4.34588 6.1933,4.34588 10.11167,11.36408 c 8.18116,9.19444 10.76379,12.319 13.52732,16.36581 l 3.41562,5.00174 2.93992,-0.1775 c 1.61696,-0.0976 3.84333,-0.25553 4.94751,-0.35089 z m 44.29541,-8.12477 c 3.16874,-5.33307 4.80267,-7.63443 10.70132,-15.07247 l 6.96158,-8.77839 6.07259,-4.84064 c 4.0367,-3.21776 7.47502,-5.66447 10.25569,-7.2979 l 4.18311,-2.45728 -1.42959,-2.37321 c -8.06483,-13.38794 -21.70563,-24.20834 -38.22197,-30.3191 -1.93077,-0.71436 -4.65503,-1.60922 -6.05387,-1.98859 l -2.54339,-0.68977 -2.27138,0.77937 c -1.24926,0.42865 -17.63242,8.53939 -36.40702,18.02385 -18.77462,9.48447 -34.75057,17.50957 -35.50212,17.83356 l -1.36644,0.58909 2.42311,1.21943 c 7.05696,3.55143 16.43608,11.39165 27.24114,22.77146 6.3786,6.7179 9.04553,9.89549 12.0307,14.33429 2.37206,3.52714 2.95961,4.21656 3.50336,4.11067 2.22508,-0.43331 11.93205,-1.05769 18.62062,-1.19773 8.46672,-0.17729 12.98778,0.11656 15.92522,1.03501 0.94217,0.29462 1.8086,0.55293 1.92534,0.57404 0.11672,0.0211 1.89514,-2.79394 3.952,-6.25569 z m 147.59476,-43.68306 c -0.15604,-0.35698 -2.14366,-4.91934 -4.41692,-10.13858 -2.4796,-5.69291 -4.69602,-10.30938 -5.53992,-11.53874 -0.77365,-1.12706 -5.27508,-8.02049 -10.00315,-15.31874 C 473.77294,96.736101 473.26852,96.036511 467.1044,88.788969 459.77213,80.167937 448.49547,68.963203 438.81502,60.680056 434.00071,56.560662 431.37939,54.634681 423.33579,49.306989 414.82327,43.6687 412.11185,42.07046 400.9127,36.08971 c -7.00679,-3.741886 -13.49671,-7.138454 -14.42207,-7.547929 -3.53254,-1.563186 -13.41525,-3.715171 -22.10772,-4.814011 -2.51169,-0.317509 -2.58114,-0.309469 -3.87882,0.4489 -0.72675,0.424705 -2.24398,1.599086 -3.37166,2.609729 -4.96656,4.451212 -8.43223,10.969012 -9.97597,18.761629 -0.74978,3.784793 -1.19067,11.811531 -0.81772,14.886894 l 0.23231,1.91575 4.10527,-2.18488 4.1053,-2.184868 7.63965,2.225856 c 6.25512,1.822467 8.71847,2.709842 13.59249,4.896449 17.04565,7.647115 29.56123,15.729954 35.91493,23.194667 1.25558,1.475145 5.95797,6.472857 10.44976,11.106036 7.41426,7.647648 8.76652,9.215558 14.67373,17.013958 4.86432,6.4216 7.44412,10.17177 10.21979,14.85611 3.33102,5.62159 3.84254,6.32895 4.97273,6.877 1.09983,0.53332 2.35282,0.67293 9.86877,1.0996 4.73497,0.26879 8.65808,0.44536 8.71809,0.39237 0.24642,-0.21763 -3.50376,-7.3493 -9.18266,-17.4625 -3.88118,-6.91168 -6.10333,-11.19571 -6.22971,-12.01007 l -0.19649,-1.26592 2.191,-1.08203 c 2.64481,-1.30616 2.01707,-1.70397 6.92917,4.39121 9.815,12.17888 15.29598,21.55607 16.26076,27.81989 l 0.20635,1.33957 2.84342,0.87837 c 1.56391,0.48309 5.04838,1.40121 7.74331,2.04024 2.69492,0.63905 6.14931,1.54591 7.67644,2.01528 3.40625,1.0469 3.3126,1.03907 2.96673,0.24774 z M 404.17842,62.681392 c -0.51927,-0.742036 -7.51202,-4.475849 -12.31226,-6.574229 -6.7549,-2.952856 -19.94322,-7.769558 -26.65449,-9.734884 -0.64629,-0.189263 -1.68598,-2.450943 -1.69401,-3.685096 -0.01,-1.518144 0.47104,-2.174376 2.06078,-2.811789 2.17766,-0.873143 4.65447,-0.73262 8.51049,0.482854 6.18219,1.948682 14.72766,5.074589 18.21943,6.664577 4.03788,1.838666 9.5782,5.408669 11.94921,7.699649 3.13395,3.028134 3.90467,5.785269 2.07009,7.405362 -0.97552,0.861488 -1.78736,1.070581 -2.14924,0.553556 z"
       id="path3347"
       inkscape:connector-curvature="0" />
  </g>
</svg>
